<svg version="1.1" xmlns="http://www.w3.org/2000/svg" xmlns:xlink="http://www.w3.org/1999/xlink" width="644" height="524"><defs/><g><g transform="translate(-390,-158) scale(1,1)"><rect fill="#C0C0C0" stroke="none" x="551" y="527" width="232" height="40" opacity="0.2"/></g><g transform="translate(-390,-158) scale(1,1)"><rect fill="#ffffff" stroke="none" x="544" y="520" width="232" height="40"/></g><g transform="translate(-390,-158) scale(1,1)"><path fill="none" stroke="#000000" d="M 544 520 L 776 520 L 776 560 L 544 560 L 544 520 Z Z" stroke-miterlimit="10"/></g><g transform="translate(-390,-158) scale(1,1)"><g><path fill="none" stroke="none"/><text fill="#000000" stroke="none" font-family="Arial" font-size="13px" font-style="normal" font-weight="bold" text-decoration="none" x="626.408203125" y="539.5">MerkelMain</text></g></g><g transform="translate(-390,-158) scale(1,1)"><rect fill="#C0C0C0" stroke="none" x="911" y="455" width="120" height="24" opacity="0.2"/></g><g transform="translate(-390,-158) scale(1,1)"><rect fill="#ffffff" stroke="none" x="904" y="448" width="120" height="24"/></g><g transform="translate(-390,-158) scale(1,1)"><path fill="none" stroke="#000000" d="M 904 448 L 1024 448 L 1024 472 L 904 472 L 904 448 Z Z" stroke-miterlimit="10"/></g><g transform="translate(-390,-158) scale(1,1)"><g><path fill="none" stroke="none"/><text fill="#000000" stroke="none" font-family="Arial" font-size="13px" font-style="normal" font-weight="bold" text-decoration="none" x="929.31640625" y="467.5">CSVReader</text></g></g><g transform="translate(-390,-158) scale(1,1)"><rect fill="#C0C0C0" stroke="none" x="863" y="535" width="120" height="24" opacity="0.2"/></g><g transform="translate(-390,-158) scale(1,1)"><rect fill="#ffffff" stroke="none" x="856" y="528" width="120" height="24"/></g><g transform="translate(-390,-158) scale(1,1)"><path fill="none" stroke="#000000" d="M 856 528 L 976 528 L 976 552 L 856 552 L 856 528 Z Z" stroke-miterlimit="10"/></g><g transform="translate(-390,-158) scale(1,1)"><g><path fill="none" stroke="none"/><text fill="#000000" stroke="none" font-family="Arial" font-size="13px" font-style="normal" font-weight="bold" text-decoration="none" x="884.569580078125" y="547.5">OrderBook</text></g></g><g transform="translate(-390,-158) scale(1,1)"><path fill="none" stroke="#000000" d="M 855 540 L 777 540" stroke-miterlimit="10"/></g><g transform="translate(-390,-158) scale(1,1)"><path fill="#000000" stroke="none" d="M 787.1626748576241 535.790482243984 L 777 540 L 787.1626748576241 544.209517756016 L 799 540"/></g><g transform="translate(-390,-158) scale(1,1)"><path fill="none" stroke="#000000" d="M 787.1626748576241 535.790482243984 L 777 540 L 787.1626748576241 544.209517756016 L 799 540 L 787.1626748576241 535.790482243984" stroke-miterlimit="10"/></g><g transform="translate(-390,-158) scale(1,1)"><g><path fill="none" stroke="none"/><text fill="#000000" stroke="none" font-family="Arial" font-size="13px" font-style="normal" font-weight="normal" text-decoration="none" x="773.5" y="561.5">-m_orderBook</text></g></g><g transform="translate(-390,-158) scale(1,1)"><g><path fill="none" stroke="none"/><text fill="#000000" stroke="none" font-family="Arial" font-size="13px" font-style="normal" font-weight="normal" text-decoration="none" x="829.5" y="533.5">1</text></g></g><g transform="translate(-390,-158) scale(1,1)"><g><path fill="none" stroke="none"/><text fill="#000000" stroke="none" font-family="Arial" font-size="13px" font-style="normal" font-weight="normal" text-decoration="none" x="794.5" y="533.5">1</text></g></g><g transform="translate(-390,-158) scale(1,1)"><path fill="none" stroke="#000000" d="M 924 527 L 956 473" stroke-miterlimit="10" stroke-dasharray="3"/></g><g transform="translate(-390,-158) scale(1,1)"><path fill="none" stroke="#000000" d="M 954.4404565519071 483.8888853531255 L 956 473 L 947.1976315795406 479.5968409250564" stroke-miterlimit="10"/></g><g transform="translate(-390,-158) scale(1,1)"><g><path fill="none" stroke="none"/><text fill="#000000" stroke="none" font-family="Arial" font-size="13px" font-style="normal" font-weight="normal" text-decoration="none" x="893.5" y="490.5">«uses»</text></g></g><g transform="translate(-390,-158) scale(1,1)"><rect fill="#C0C0C0" stroke="none" x="839" y="647" width="168" height="24" opacity="0.2"/></g><g transform="translate(-390,-158) scale(1,1)"><rect fill="#ffffff" stroke="none" x="832" y="640" width="168" height="24"/></g><g transform="translate(-390,-158) scale(1,1)"><path fill="none" stroke="#000000" d="M 832 640 L 1000 640 L 1000 664 L 832 664 L 832 640 Z Z" stroke-miterlimit="10"/></g><g transform="translate(-390,-158) scale(1,1)"><g><path fill="none" stroke="none"/><text fill="#000000" stroke="none" font-family="Arial" font-size="13px" font-style="normal" font-weight="bold" text-decoration="none" x="869.398681640625" y="659.5">OrderBookEntry</text></g></g><g transform="translate(-390,-158) scale(1,1)"><path fill="none" stroke="#000000" d="M 916 553 L 916 639" stroke-miterlimit="10"/></g><g transform="translate(-390,-158) scale(1,1)"><path fill="#FFFFFF" stroke="none" d="M 911.790482243984 628.8373251423759 L 916 639 L 920.209517756016 628.8373251423759 L 916 617"/></g><g transform="translate(-390,-158) scale(1,1)"><path fill="none" stroke="#000000" d="M 911.790482243984 628.8373251423759 L 916 639 L 920.209517756016 628.8373251423759 L 916 617 L 911.790482243984 628.8373251423759" stroke-miterlimit="10"/></g><g transform="translate(-390,-158) scale(1,1)"><path fill="none" stroke="#000000" d="M 916 639 L 916 553" stroke-miterlimit="10"/></g><g transform="translate(-390,-158) scale(1,1)"><path fill="#FFFFFF" stroke="none" d="M 920.209517756016 563.1626748576241 L 916 553 L 911.790482243984 563.1626748576241 L 916 575"/></g><g transform="translate(-390,-158) scale(1,1)"><path fill="none" stroke="#000000" d="M 920.209517756016 563.1626748576241 L 916 553 L 911.790482243984 563.1626748576241 L 916 575 L 920.209517756016 563.1626748576241" stroke-miterlimit="10"/></g><g transform="translate(-390,-158) scale(1,1)"><g><path fill="none" stroke="none"/><text fill="#000000" stroke="none" font-family="Arial" font-size="13px" font-style="normal" font-weight="normal" text-decoration="none" x="849.5" y="602.5">-m_orders</text></g></g><g transform="translate(-390,-158) scale(1,1)"><g><path fill="none" stroke="none"/><text fill="#000000" stroke="none" font-family="Arial" font-size="13px" font-style="normal" font-weight="normal" text-decoration="none" x="925.5" y="623.5">*</text></g></g><g transform="translate(-390,-158) scale(1,1)"><g><path fill="none" stroke="none"/><text fill="#000000" stroke="none" font-family="Arial" font-size="13px" font-style="normal" font-weight="normal" text-decoration="none" x="924.5" y="580.5">1</text></g></g><g transform="translate(-390,-158) scale(1,1)"><rect fill="#C0C0C0" stroke="none" x="623" y="655" width="80" height="24" opacity="0.2"/></g><g transform="translate(-390,-158) scale(1,1)"><rect fill="#ffffff" stroke="none" x="616" y="648" width="80" height="24"/></g><g transform="translate(-390,-158) scale(1,1)"><path fill="none" stroke="#000000" d="M 616 648 L 696 648 L 696 672 L 616 672 L 616 648 Z Z" stroke-miterlimit="10"/></g><g transform="translate(-390,-158) scale(1,1)"><g><path fill="none" stroke="none"/><text fill="#000000" stroke="none" font-family="Arial" font-size="13px" font-style="normal" font-weight="bold" text-decoration="none" x="638.18212890625" y="667.5">Wallet</text></g></g><g transform="translate(-390,-158) scale(1,1)"><path fill="none" stroke="#000000" d="M 656 647 L 659 561" stroke-miterlimit="10"/></g><g transform="translate(-390,-158) scale(1,1)"><path fill="#000000" stroke="none" d="M 662.852662452706 571.3032515268486 L 659 561 L 654.4387447230259 571.0097427688365 L 658.233024653829 582.9866265902335"/></g><g transform="translate(-390,-158) scale(1,1)"><path fill="none" stroke="#000000" d="M 662.852662452706 571.3032515268486 L 659 561 L 654.4387447230259 571.0097427688365 L 658.233024653829 582.9866265902335 L 662.852662452706 571.3032515268486" stroke-miterlimit="10"/></g><g transform="translate(-390,-158) scale(1,1)"><g><path fill="none" stroke="none"/><text fill="#000000" stroke="none" font-family="Arial" font-size="13px" font-style="normal" font-weight="normal" text-decoration="none" x="665.5" y="631.5">1</text></g></g><g transform="translate(-390,-158) scale(1,1)"><g><path fill="none" stroke="none"/><text fill="#000000" stroke="none" font-family="Arial" font-size="13px" font-style="normal" font-weight="normal" text-decoration="none" x="674.5" y="609.5">-m_wallet</text></g></g><g transform="translate(-390,-158) scale(1,1)"><g><path fill="none" stroke="none"/><text fill="#000000" stroke="none" font-family="Arial" font-size="13px" font-style="normal" font-weight="normal" text-decoration="none" x="666.5" y="589.5">1</text></g></g><g transform="translate(-390,-158) scale(1,1)"><rect fill="#C0C0C0" stroke="none" x="775" y="191" width="120" height="24" opacity="0.2"/></g><g transform="translate(-390,-158) scale(1,1)"><rect fill="#ffffff" stroke="none" x="768" y="184" width="120" height="24"/></g><g transform="translate(-390,-158) scale(1,1)"><path fill="none" stroke="#000000" d="M 768 184 L 888 184 L 888 208 L 768 208 L 768 184 Z Z" stroke-miterlimit="10"/></g><g transform="translate(-390,-158) scale(1,1)"><g><path fill="none" stroke="none"/><text fill="#000000" stroke="none" font-family="Arial" font-size="13px" font-style="normal" font-weight="bold" text-decoration="none" x="789.70458984375" y="203.5">CLInterpreter</text></g></g><g transform="translate(-390,-158) scale(1,1)"><path fill="none" stroke="#000000" d="M 828 209 L 824 416 L 688 519" stroke-miterlimit="10"/></g><g transform="translate(-390,-158) scale(1,1)"><path fill="#000000" stroke="none" d="M 693.5599825485548 509.50860420908674 L 688 519 L 698.6429316900421 516.2200710366817 L 705.537907993864 505.71761379876483"/></g><g transform="translate(-390,-158) scale(1,1)"><path fill="none" stroke="#000000" d="M 693.5599825485548 509.50860420908674 L 688 519 L 698.6429316900421 516.2200710366817 L 705.537907993864 505.71761379876483 L 693.5599825485548 509.50860420908674" stroke-miterlimit="10"/></g><g transform="translate(-390,-158) scale(1,1)"><g><path fill="none" stroke="none"/><text fill="#000000" stroke="none" font-family="Arial" font-size="13px" font-style="normal" font-weight="normal" text-decoration="none" x="727.5" y="508.5">-m_clInterpreter</text></g></g><g transform="translate(-390,-158) scale(1,1)"><g><path fill="none" stroke="none"/><text fill="#000000" stroke="none" font-family="Arial" font-size="13px" font-style="normal" font-weight="normal" text-decoration="none" x="811.5" y="236.5">1</text></g></g><g transform="translate(-390,-158) scale(1,1)"><g><path fill="none" stroke="none"/><text fill="#000000" stroke="none" font-family="Arial" font-size="13px" font-style="normal" font-weight="normal" text-decoration="none" x="693.5" y="501.5">1</text></g></g><g transform="translate(-390,-158) scale(1,1)"><rect fill="#C0C0C0" stroke="none" x="551" y="343" width="54.658203125" height="24" opacity="0.2"/></g><g transform="translate(-390,-158) scale(1,1)"><rect fill="#ffffff" stroke="none" x="544" y="336" width="54.658203125" height="24"/></g><g transform="translate(-390,-158) scale(1,1)"><path fill="none" stroke="#000000" d="M 544 336 L 598.658203125 336 L 598.658203125 360 L 544 360 L 544 336 Z Z" stroke-miterlimit="10"/></g><g transform="translate(-390,-158) scale(1,1)"><g><path fill="none" stroke="none"/><text fill="#000000" stroke="none" font-family="Arial" font-size="13px" font-style="normal" font-weight="bold" text-decoration="none" x="561.57275390625" y="355.5">Bot</text></g></g><g transform="translate(-390,-158) scale(1,1)"><path fill="none" stroke="#000000" d="M 577 361 L 650 519" stroke-miterlimit="10"/></g><g transform="translate(-390,-158) scale(1,1)"><path fill="#000000" stroke="none" d="M 641.9161826071835 511.5399801367826 L 650 519 L 649.558908536733 508.0088472705984 L 640.7727051459717 499.0285946995004"/></g><g transform="translate(-390,-158) scale(1,1)"><path fill="none" stroke="#000000" d="M 641.9161826071835 511.5399801367826 L 650 519 L 649.558908536733 508.0088472705984 L 640.7727051459717 499.0285946995004 L 641.9161826071835 511.5399801367826" stroke-miterlimit="10"/></g><g transform="translate(-390,-158) scale(1,1)"><g><path fill="none" stroke="none"/><text fill="#000000" stroke="none" font-family="Arial" font-size="13px" font-style="normal" font-weight="normal" text-decoration="none" x="614.5" y="438.5">-m_bot</text></g></g><g transform="translate(-390,-158) scale(1,1)"><path fill="#C0C0C0" stroke="none" d="M 562.779541015625 186.5 C 562.779541015625 180.1487248 567.928265815625 175 574.279541015625 175 C 580.630816215625 175 585.779541015625 180.1487248 585.779541015625 186.5 C 585.779541015625 192.8512752 580.630816215625 198 574.279541015625 198 C 567.928265815625 198 562.779541015625 192.8512752 562.779541015625 186.5 Z" opacity="0.2"/></g><g transform="translate(-390,-158) scale(1,1)"><path fill="#ffffff" stroke="none" d="M 555.779541015625 179.5 C 555.779541015625 173.1487248 560.928265815625 168 567.279541015625 168 C 573.630816215625 168 578.779541015625 173.1487248 578.779541015625 179.5 C 578.779541015625 185.8512752 573.630816215625 191 567.279541015625 191 C 560.928265815625 191 555.779541015625 185.8512752 555.779541015625 179.5 Z"/></g><g transform="translate(-390,-158) scale(1,1)"><path fill="none" stroke="#000000" d="M 555.779541015625 179.5 C 555.779541015625 173.1487248 560.928265815625 168 567.279541015625 168 C 573.630816215625 168 578.779541015625 173.1487248 578.779541015625 179.5 C 578.779541015625 185.8512752 573.630816215625 191 567.279541015625 191 C 560.928265815625 191 555.779541015625 185.8512752 555.779541015625 179.5 Z" stroke-miterlimit="10"/></g><g transform="translate(-390,-158) scale(1,1)"><g><path fill="none" stroke="none"/><text fill="#000000" stroke="none" font-family="Arial" font-size="13px" font-style="normal" font-weight="bold" text-decoration="none" x="550.302734375" y="210.5">IActor</text></g></g><g transform="translate(-390,-158) scale(1,1)"><path fill="none" stroke="#000000" d="M 767 195 L 578.779541015625 185.125361328125" stroke-miterlimit="10"/></g><g transform="translate(-390,-158) scale(1,1)"><path fill="none" stroke="#000000" d="M 571 335 L 567.3157894736842 191" stroke-miterlimit="10"/></g><g transform="translate(-390,-158) scale(1,1)"><rect fill="#C0C0C0" stroke="none" x="607" y="255" width="160" height="24" opacity="0.2"/></g><g transform="translate(-390,-158) scale(1,1)"><rect fill="#ffffff" stroke="none" x="600" y="248" width="160" height="24"/></g><g transform="translate(-390,-158) scale(1,1)"><path fill="none" stroke="#000000" d="M 600 248 L 760 248 L 760 272 L 600 272 L 600 248 Z Z" stroke-miterlimit="10"/></g><g transform="translate(-390,-158) scale(1,1)"><g><path fill="none" stroke="none"/><text fill="#000000" stroke="none" font-family="Arial" font-size="13px" font-style="normal" font-weight="bold" text-decoration="none" x="626.530517578125" y="267.5">BotRemoteControl</text></g></g><g transform="translate(-390,-158) scale(1,1)"><path fill="none" stroke="#000000" d="M 587 335 L 664 273" stroke-miterlimit="10" stroke-dasharray="3"/></g><g transform="translate(-390,-158) scale(1,1)"><path fill="none" stroke="#000000" d="M 658.7244198141262 282.652370367035 L 664 273 L 653.4443449348207 276.0948580169298" stroke-miterlimit="10"/></g><g transform="translate(-390,-158) scale(1,1)"><path fill="none" stroke="#000000" d="M 710 247 L 798 209" stroke-miterlimit="10"/></g><g transform="translate(-390,-158) scale(1,1)"><path fill="#FFFFFF" stroke="none" d="M 790.3388352517244 216.89345011384626 L 798 209 L 787.0012263522486 209.16425055716542 L 777.8026282222038 217.7215923585938"/></g><g transform="translate(-390,-158) scale(1,1)"><path fill="none" stroke="#000000" d="M 790.3388352517244 216.89345011384626 L 798 209 L 787.0012263522486 209.16425055716542 L 777.8026282222038 217.7215923585938 L 790.3388352517244 216.89345011384626" stroke-miterlimit="10"/></g><g transform="translate(-390,-158) scale(1,1)"><rect fill="#C0C0C0" stroke="none" x="407" y="471" width="194" height="24" opacity="0.2"/></g><g transform="translate(-390,-158) scale(1,1)"><rect fill="#ffffff" stroke="none" x="400" y="464" width="194" height="24"/></g><g transform="translate(-390,-158) scale(1,1)"><path fill="none" stroke="#000000" d="M 400 464 L 594 464 L 594 488 L 400 488 L 400 464 Z Z" stroke-miterlimit="10"/></g><g transform="translate(-390,-158) scale(1,1)"><g><path fill="none" stroke="none"/><text fill="#000000" stroke="none" font-family="Arial" font-size="13px" font-style="normal" font-weight="bold" text-decoration="none" x="427.382080078125" y="483.5">RollingAverageManager</text></g></g><g transform="translate(-390,-158) scale(1,1)"><path fill="none" stroke="#000000" d="M 563 361 L 505 463" stroke-miterlimit="10"/></g><g transform="translate(-390,-158) scale(1,1)"><path fill="none" stroke="#000000" d="M 506.36414059811995 452.0849131735675 L 505 463 L 513.6827249796329 456.2464611552121" stroke-miterlimit="10"/></g><g transform="translate(-390,-158) scale(1,1)"><path fill="#C0C0C0" stroke="none" d="M 691.740478515625 354.5 C 691.740478515625 348.1487248 696.889203315625 343 703.240478515625 343 C 709.591753715625 343 714.740478515625 348.1487248 714.740478515625 354.5 C 714.740478515625 360.8512752 709.591753715625 366 703.240478515625 366 C 696.889203315625 366 691.740478515625 360.8512752 691.740478515625 354.5 Z" opacity="0.2"/></g><g transform="translate(-390,-158) scale(1,1)"><path fill="none" stroke="#000000" d="M 707.4017243987392 348.500226894571 A 11.5 11.5 0 0 1 684.5982756012608 345.499773105429" stroke-miterlimit="10"/></g><g transform="translate(-390,-158) scale(1,1)"><path fill="none" stroke="#000000" d="M 685.0901420724191 350.6366193091936 A 11.5 11.5 0 0 1 706.9098579275809 343.3633806908064" stroke-miterlimit="10"/></g><g transform="translate(-390,-158) scale(1,1)"><path fill="#ffffff" stroke="none" d="M 687.740478515625 347.5 C 687.740478515625 342.8055792 691.546057715625 339 696.240478515625 339 C 700.934899315625 339 704.740478515625 342.8055792 704.740478515625 347.5 C 704.740478515625 352.1944208 700.934899315625 356 696.240478515625 356 C 691.546057715625 356 687.740478515625 352.1944208 687.740478515625 347.5 Z"/></g><g transform="translate(-390,-158) scale(1,1)"><path fill="none" stroke="#000000" d="M 687.740478515625 347.5 C 687.740478515625 342.8055792 691.546057715625 339 696.240478515625 339 C 700.934899315625 339 704.740478515625 342.8055792 704.740478515625 347.5 C 704.740478515625 352.1944208 700.934899315625 356 696.240478515625 356 C 691.546057715625 356 687.740478515625 352.1944208 687.740478515625 347.5 Z" stroke-miterlimit="10"/></g><g transform="translate(-390,-158) scale(1,1)"><g><path fill="none" stroke="none"/><text fill="#000000" stroke="none" font-family="Arial" font-size="13px" font-style="normal" font-weight="bold" text-decoration="none" x="663.724609375" y="378.5">IBotControl</text></g></g><g transform="translate(-390,-158) scale(1,1)"><path fill="none" stroke="#000000" d="M 664 519 L 694.421052631579 359" stroke-miterlimit="10"/></g><g transform="translate(-390,-158) scale(1,1)"><path fill="none" stroke="#000000" d="M 600 351 L 684.740478515625 349.4716022770579" stroke-miterlimit="10"/></g><g transform="translate(-390,-158) scale(1,1)"><path fill="none" stroke="#000000" d="M 682 273 L 692.3333333333334 336" stroke-miterlimit="10"/></g></g></svg>