<svg version="1.1" xmlns="http://www.w3.org/2000/svg" xmlns:xlink="http://www.w3.org/1999/xlink" width="1628" height="1065"><defs/><g><g transform="translate(-238,2) scale(1,1)"><rect fill="#C0C0C0" stroke="none" x="823" y="487" width="259.9990234375" height="215" opacity="0.2"/></g><g transform="translate(-238,2) scale(1,1)"><rect fill="#ffffff" stroke="none" x="816" y="480" width="259.9990234375" height="215"/></g><g transform="translate(-238,2) scale(1,1)"><path fill="none" stroke="#000000" d="M 816 480 L 1075.9990234375 480 L 1075.9990234375 695 L 816 695 L 816 480 Z Z" stroke-miterlimit="10"/></g><g transform="translate(-238,2) scale(1,1)"><path fill="none" stroke="#000000" d="M 816 505 L 1075.9990234375 505" stroke-miterlimit="10"/></g><g transform="translate(-238,2) scale(1,1)"><path fill="none" stroke="#000000" d="M 816 543 L 1075.9990234375 543" stroke-miterlimit="10"/></g><g transform="translate(-238,2) scale(1,1)"><path fill="none" stroke="#000000" d="M 816 626 L 1075.9990234375 626" stroke-miterlimit="10"/></g><g transform="translate(-238,2) scale(1,1)"><g><path fill="none" stroke="none"/><text fill="#000000" stroke="none" font-family="Arial" font-size="13px" font-style="normal" font-weight="bold" text-decoration="none" x="912.40771484375" y="499.5">MerkelMain</text></g></g><g transform="translate(-238,2) scale(1,1)"><g><path fill="none" stroke="none"/><text fill="#000000" stroke="none" font-family="Arial" font-size="13px" font-style="normal" font-weight="normal" text-decoration="none" x="821" y="522.5">-m_currentTime: std::string</text></g></g><g transform="translate(-238,2) scale(1,1)"><g><path fill="none" stroke="none"/><text fill="#000000" stroke="none" font-family="Arial" font-size="13px" font-style="normal" font-weight="normal" text-decoration="none" x="821" y="537.5">-m_keepRunning</text></g></g><g transform="translate(-238,2) scale(1,1)"><g><path fill="none" stroke="none"/><text fill="#000000" stroke="none" font-family="Arial" font-size="13px" font-style="normal" font-weight="normal" text-decoration="none" x="821" y="560.5">«constructor»+MerkelMain()</text></g></g><g transform="translate(-238,2) scale(1,1)"><g><path fill="none" stroke="none"/><text fill="#000000" stroke="none" font-family="Arial" font-size="13px" font-style="normal" font-weight="normal" text-decoration="none" x="821" y="575.5">+init(): init</text></g></g><g transform="translate(-238,2) scale(1,1)"><g><path fill="none" stroke="none"/><text fill="#000000" stroke="none" font-family="Arial" font-size="13px" font-style="normal" font-weight="normal" text-decoration="none" x="821" y="590.5">-enterAsk(obe: OrderBookEntry)</text></g></g><g transform="translate(-238,2) scale(1,1)"><g><path fill="none" stroke="none"/><text fill="#000000" stroke="none" font-family="Arial" font-size="13px" font-style="normal" font-weight="normal" text-decoration="none" x="821" y="605.5">-enterBid(obe: OrderBookEntry)</text></g></g><g transform="translate(-238,2) scale(1,1)"><g><path fill="none" stroke="none"/><text fill="#000000" stroke="none" font-family="Arial" font-size="13px" font-style="normal" font-weight="normal" text-decoration="none" x="821" y="620.5">-gotoNextFrame()</text></g></g><g transform="translate(-238,2) scale(1,1)"><g><path fill="none" stroke="none"/><text fill="#000000" stroke="none" font-family="Arial" font-size="13px" font-style="normal" font-weight="normal" text-decoration="none" x="821" y="645.5">«signal»+quitRequest_Event()</text></g></g><g transform="translate(-238,2) scale(1,1)"><g><path fill="none" stroke="none"/><text fill="#000000" stroke="none" font-family="Arial" font-size="13px" font-style="normal" font-weight="normal" text-decoration="none" x="821" y="660.5">«signal»+enterAsk_Event()</text></g></g><g transform="translate(-238,2) scale(1,1)"><g><path fill="none" stroke="none"/><text fill="#000000" stroke="none" font-family="Arial" font-size="13px" font-style="normal" font-weight="normal" text-decoration="none" x="821" y="675.5">«signal»+enterBid_Event()</text></g></g><g transform="translate(-238,2) scale(1,1)"><g><path fill="none" stroke="none"/><text fill="#000000" stroke="none" font-family="Arial" font-size="13px" font-style="normal" font-weight="normal" text-decoration="none" x="821" y="690.5">«signal»+gotoNextTimeFrame_Event()</text></g></g><g transform="translate(-238,2) scale(1,1)"><rect fill="#C0C0C0" stroke="none" x="1207" y="319" width="458.6806640625" height="205" opacity="0.2"/></g><g transform="translate(-238,2) scale(1,1)"><rect fill="#ffffff" stroke="none" x="1200" y="312" width="458.6806640625" height="205"/></g><g transform="translate(-238,2) scale(1,1)"><path fill="none" stroke="#000000" d="M 1200 312 L 1658.6806640625 312 L 1658.6806640625 517 L 1200 517 L 1200 312 Z Z" stroke-miterlimit="10"/></g><g transform="translate(-238,2) scale(1,1)"><path fill="none" stroke="#000000" d="M 1200 337 L 1658.6806640625 337" stroke-miterlimit="10"/></g><g transform="translate(-238,2) scale(1,1)"><g><path fill="none" stroke="none"/><text fill="#000000" stroke="none" font-family="Arial" font-size="13px" font-style="normal" font-weight="bold" text-decoration="none" x="1397.909912109375" y="331.5">OrderBook</text></g></g><g transform="translate(-238,2) scale(1,1)"><g><path fill="none" stroke="none"/><text fill="#000000" stroke="none" font-family="Arial" font-size="13px" font-style="normal" font-weight="normal" text-decoration="none" x="1205" y="354.5">«constructor»+OrderBook(filename)</text></g></g><g transform="translate(-238,2) scale(1,1)"><g><path fill="none" stroke="none"/><text fill="#000000" stroke="none" font-family="Arial" font-size="13px" font-style="normal" font-weight="normal" text-decoration="none" x="1205" y="369.5">+getKnownProducts(): getKnownProducts[*]</text></g></g><g transform="translate(-238,2) scale(1,1)"><g><path fill="none" stroke="none"/><text fill="#000000" stroke="none" font-family="Arial" font-size="13px" font-style="normal" font-weight="normal" text-decoration="none" x="1205" y="384.5">+getOrders(type: OrderBookType, product, timestamp): getOrders[*]</text></g></g><g transform="translate(-238,2) scale(1,1)"><g><path fill="none" stroke="none"/><text fill="#000000" stroke="none" font-family="Arial" font-size="13px" font-style="normal" font-weight="normal" text-decoration="none" x="1205" y="399.5">+getEarliestTime(): getEarliestTime</text></g></g><g transform="translate(-238,2) scale(1,1)"><g><path fill="none" stroke="none"/><text fill="#000000" stroke="none" font-family="Arial" font-size="13px" font-style="normal" font-weight="normal" text-decoration="none" x="1205" y="414.5">+getNextTime(timestamp): getNextTime</text></g></g><g transform="translate(-238,2) scale(1,1)"><g><path fill="none" stroke="none"/><text fill="#000000" stroke="none" font-family="Arial" font-size="13px" font-style="normal" font-weight="normal" text-decoration="none" x="1205" y="429.5">+insertOrder(order): insertOrder</text></g></g><g transform="translate(-238,2) scale(1,1)"><g><path fill="none" stroke="none"/><text fill="#000000" stroke="none" font-family="Arial" font-size="13px" font-style="normal" font-weight="normal" text-decoration="none" x="1205" y="444.5">+matchAsksToBids(product, timestamp): matchAsksToBids[*]</text></g></g><g transform="translate(-238,2) scale(1,1)"><g><path fill="none" stroke="none"/><text fill="#000000" stroke="none" font-family="Arial" font-size="13px" font-style="normal" font-weight="normal" text-decoration="none" x="1205" y="459.5">+getHighPrice(order[*]): getHighPrice</text></g></g><g transform="translate(-238,2) scale(1,1)"><g><path fill="none" stroke="none"/><text fill="#000000" stroke="none" font-family="Arial" font-size="13px" font-style="normal" font-weight="normal" text-decoration="none" x="1205" y="474.5">+getLowPrice(order[*]): getLowPrice</text></g></g><g transform="translate(-238,2) scale(1,1)"><g><path fill="none" stroke="none"/><text fill="#000000" stroke="none" font-family="Arial" font-size="13px" font-style="normal" font-weight="normal" text-decoration="none" x="1205" y="489.5">+removeCustomOrders()</text></g></g><g transform="translate(-238,2) scale(1,1)"><rect fill="#C0C0C0" stroke="none" x="791" y="855" width="406.02685546875" height="205" opacity="0.2"/></g><g transform="translate(-238,2) scale(1,1)"><rect fill="#ffffff" stroke="none" x="784" y="848" width="406.02685546875" height="205"/></g><g transform="translate(-238,2) scale(1,1)"><path fill="none" stroke="#000000" d="M 784 848 L 1190.02685546875 848 L 1190.02685546875 1053 L 784 1053 L 784 848 Z Z" stroke-miterlimit="10"/></g><g transform="translate(-238,2) scale(1,1)"><path fill="none" stroke="#000000" d="M 784 873 L 1190.02685546875 873" stroke-miterlimit="10"/></g><g transform="translate(-238,2) scale(1,1)"><path fill="none" stroke="#000000" d="M 784 911 L 1190.02685546875 911" stroke-miterlimit="10"/></g><g transform="translate(-238,2) scale(1,1)"><g><path fill="none" stroke="none"/><text fill="#000000" stroke="none" font-family="Arial" font-size="13px" font-style="normal" font-weight="bold" text-decoration="none" x="969.195556640625" y="867.5">Wallet</text></g></g><g transform="translate(-238,2) scale(1,1)"><g><path fill="none" stroke="none"/><text fill="#000000" stroke="none" font-family="Arial" font-size="13px" font-style="normal" font-weight="normal" text-decoration="none" x="789" y="890.5">-m_currencies: std::map&lt;std::string, double&gt;</text></g></g><g transform="translate(-238,2) scale(1,1)"><g><path fill="none" stroke="none"/><text fill="#000000" stroke="none" font-family="Arial" font-size="13px" font-style="normal" font-weight="normal" text-decoration="none" x="789" y="905.5">-m_reserves: std::map&lt;std::string, double&gt;</text></g></g><g transform="translate(-238,2) scale(1,1)"><g><path fill="none" stroke="none"/><text fill="#000000" stroke="none" font-family="Arial" font-size="13px" font-style="normal" font-weight="normal" text-decoration="none" x="789" y="928.5">«constructor»+Wallet()</text></g></g><g transform="translate(-238,2) scale(1,1)"><g><path fill="none" stroke="none"/><text fill="#000000" stroke="none" font-family="Arial" font-size="13px" font-style="normal" font-weight="normal" text-decoration="none" x="789" y="943.5">+insertCurrency(type, amount: double): insertCurrency</text></g></g><g transform="translate(-238,2) scale(1,1)"><g><path fill="none" stroke="none"/><text fill="#000000" stroke="none" font-family="Arial" font-size="13px" font-style="normal" font-weight="normal" text-decoration="none" x="789" y="958.5">+containsCurrency(type, amount: double): containsCurrency</text></g></g><g transform="translate(-238,2) scale(1,1)"><g><path fill="none" stroke="none"/><text fill="#000000" stroke="none" font-family="Arial" font-size="13px" font-style="normal" font-weight="normal" text-decoration="none" x="789" y="973.5">+canFulfillOrder(order): canFulfillOrder</text></g></g><g transform="translate(-238,2) scale(1,1)"><g><path fill="none" stroke="none"/><text fill="#000000" stroke="none" font-family="Arial" font-size="13px" font-style="normal" font-weight="normal" text-decoration="none" x="789" y="988.5">+processSale(sale): processSale</text></g></g><g transform="translate(-238,2) scale(1,1)"><g><path fill="none" stroke="none"/><text fill="#000000" stroke="none" font-family="Arial" font-size="13px" font-style="normal" font-weight="normal" text-decoration="none" x="789" y="1003.5">+toString(): toString</text></g></g><g transform="translate(-238,2) scale(1,1)"><g><path fill="none" stroke="none"/><text fill="#000000" stroke="none" font-family="Arial" font-size="13px" font-style="normal" font-weight="normal" text-decoration="none" x="789" y="1018.5">+operator&lt;&lt;(os: std::ostream, wallet: Wallet): std::ostream</text></g></g><g transform="translate(-238,2) scale(1,1)"><g><path fill="none" stroke="none"/><text fill="#000000" stroke="none" font-family="Arial" font-size="13px" font-style="normal" font-weight="normal" text-decoration="none" x="789" y="1033.5">+reserveAmount(type: std::string, amount: double): double</text></g></g><g transform="translate(-238,2) scale(1,1)"><g><path fill="none" stroke="none"/><text fill="#000000" stroke="none" font-family="Arial" font-size="13px" font-style="normal" font-weight="normal" text-decoration="none" x="789" y="1048.5">+clearReserves()</text></g></g><g transform="translate(-238,2) scale(1,1)"><path fill="none" stroke="#000000" d="M 975 847 L 958 696" stroke-miterlimit="10"/></g><g transform="translate(-238,2) scale(1,1)"><path fill="#000000" stroke="none" d="M 963.3200506131268 705.6279313185008 L 958 696 L 954.9538683406873 706.569819388908 L 960.4612721397056 717.8618878291494"/></g><g transform="translate(-238,2) scale(1,1)"><path fill="none" stroke="#000000" d="M 963.3200506131268 705.6279313185008 L 958 696 L 954.9538683406873 706.569819388908 L 960.4612721397056 717.8618878291494 L 963.3200506131268 705.6279313185008" stroke-miterlimit="10"/></g><g transform="translate(-238,2) scale(1,1)"><g><path fill="none" stroke="none"/><text fill="#000000" stroke="none" font-family="Arial" font-size="13px" font-style="normal" font-weight="normal" text-decoration="none" x="980.0205078125" y="830.5">1</text></g></g><g transform="translate(-238,2) scale(1,1)"><g><path fill="none" stroke="none"/><text fill="#000000" stroke="none" font-family="Arial" font-size="13px" font-style="normal" font-weight="normal" text-decoration="none" x="918.07373046875" y="729.5">-m_wallet</text></g></g><g transform="translate(-238,2) scale(1,1)"><g><path fill="none" stroke="none"/><text fill="#000000" stroke="none" font-family="Arial" font-size="13px" font-style="normal" font-weight="normal" text-decoration="none" x="968.0205078125" y="722.5">1</text></g></g><g transform="translate(-238,2) scale(1,1)"><path fill="none" stroke="#000000" d="M 1199 496 L 1077 540" stroke-miterlimit="10"/></g><g transform="translate(-238,2) scale(1,1)"><path fill="#000000" stroke="none" d="M 1085.1317892958527 532.592301109801 L 1077 540 L 1087.9880774725254 540.5120092360298 L 1097.695194660722 532.5361593026904"/></g><g transform="translate(-238,2) scale(1,1)"><path fill="none" stroke="#000000" d="M 1085.1317892958527 532.592301109801 L 1077 540 L 1087.9880774725254 540.5120092360298 L 1097.695194660722 532.5361593026904 L 1085.1317892958527 532.592301109801" stroke-miterlimit="10"/></g><g transform="translate(-238,2) scale(1,1)"><g><path fill="none" stroke="none"/><text fill="#000000" stroke="none" font-family="Arial" font-size="13px" font-style="normal" font-weight="normal" text-decoration="none" x="1101.7529296875" y="538.5">-m_orderBook</text></g></g><g transform="translate(-238,2) scale(1,1)"><g><path fill="none" stroke="none"/><text fill="#000000" stroke="none" font-family="Arial" font-size="13px" font-style="normal" font-weight="normal" text-decoration="none" x="1170.0205078125" y="497.5">1</text></g></g><g transform="translate(-238,2) scale(1,1)"><g><path fill="none" stroke="none"/><text fill="#000000" stroke="none" font-family="Arial" font-size="13px" font-style="normal" font-weight="normal" text-decoration="none" x="1089.0205078125" y="526.5">1</text></g></g><g transform="translate(-238,2) scale(1,1)"><rect fill="#C0C0C0" stroke="none" x="647" y="15" width="620.86962890625" height="235" opacity="0.2"/></g><g transform="translate(-238,2) scale(1,1)"><rect fill="#ffffff" stroke="none" x="640" y="8" width="620.86962890625" height="235"/></g><g transform="translate(-238,2) scale(1,1)"><path fill="none" stroke="#000000" d="M 640 8 L 1260.86962890625 8 L 1260.86962890625 243 L 640 243 L 640 8 Z Z" stroke-miterlimit="10"/></g><g transform="translate(-238,2) scale(1,1)"><path fill="none" stroke="#000000" d="M 640 33 L 1260.86962890625 33" stroke-miterlimit="10"/></g><g transform="translate(-238,2) scale(1,1)"><path fill="none" stroke="#000000" d="M 640 101 L 1260.86962890625 101" stroke-miterlimit="10"/></g><g transform="translate(-238,2) scale(1,1)"><g><path fill="none" stroke="none"/><text fill="#000000" stroke="none" font-family="Arial" font-size="13px" font-style="normal" font-weight="bold" text-decoration="none" x="912.139404296875" y="27.5">CLInterpreter</text></g></g><g transform="translate(-238,2) scale(1,1)"><g><path fill="none" stroke="none"/><text fill="#000000" stroke="none" font-family="Arial" font-size="13px" font-style="normal" font-weight="normal" text-decoration="none" x="645" y="50.5">-m_currentTime: string</text></g></g><g transform="translate(-238,2) scale(1,1)"><g><path fill="none" stroke="none"/><text fill="#000000" stroke="none" font-family="Arial" font-size="13px" font-style="normal" font-weight="normal" text-decoration="none" x="645" y="65.5">-m_orderBook: OrderBook</text></g></g><g transform="translate(-238,2) scale(1,1)"><g><path fill="none" stroke="none"/><text fill="#000000" stroke="none" font-family="Arial" font-size="13px" font-style="normal" font-weight="normal" text-decoration="none" x="645" y="80.5">-m_wallet: Wallet</text></g></g><g transform="translate(-238,2) scale(1,1)"><g><path fill="none" stroke="none"/><text fill="#000000" stroke="none" font-family="Arial" font-size="13px" font-style="normal" font-weight="normal" text-decoration="none" x="645" y="95.5">-m_botRemoteControl: BotRemoteControl</text></g></g><g transform="translate(-238,2) scale(1,1)"><g><path fill="none" stroke="none"/><text fill="#000000" stroke="none" font-family="Arial" font-size="13px" font-style="normal" font-weight="normal" text-decoration="none" x="645" y="118.5">+processUserOption(userOption: int)</text></g></g><g transform="translate(-238,2) scale(1,1)"><g><path fill="none" stroke="none"/><text fill="#000000" stroke="none" font-family="Arial" font-size="13px" font-style="normal" font-weight="normal" text-decoration="none" x="645" y="133.5">-printHelp()</text></g></g><g transform="translate(-238,2) scale(1,1)"><g><path fill="none" stroke="none"/><text fill="#000000" stroke="none" font-family="Arial" font-size="13px" font-style="normal" font-weight="normal" text-decoration="none" x="645" y="148.5">-printMenu()</text></g></g><g transform="translate(-238,2) scale(1,1)"><g><path fill="none" stroke="none"/><text fill="#000000" stroke="none" font-family="Arial" font-size="13px" font-style="normal" font-weight="normal" text-decoration="none" x="645" y="163.5">-printWallet()</text></g></g><g transform="translate(-238,2) scale(1,1)"><g><path fill="none" stroke="none"/><text fill="#000000" stroke="none" font-family="Arial" font-size="13px" font-style="normal" font-weight="normal" text-decoration="none" x="645" y="178.5">-printMarketStats()</text></g></g><g transform="translate(-238,2) scale(1,1)"><g><path fill="none" stroke="none"/><text fill="#000000" stroke="none" font-family="Arial" font-size="13px" font-style="normal" font-weight="normal" text-decoration="none" x="645" y="193.5">-getUserOption(): int</text></g></g><g transform="translate(-238,2) scale(1,1)"><g><path fill="none" stroke="none"/><text fill="#000000" stroke="none" font-family="Arial" font-size="13px" font-style="normal" font-weight="normal" text-decoration="none" x="645" y="208.5">«constructor»+CLInterpreter(orderBook: OrderBook, wallet: Wallet, botRemoteControl: BotRemoteControl)</text></g></g><g transform="translate(-238,2) scale(1,1)"><g><path fill="none" stroke="none"/><text fill="#000000" stroke="none" font-family="Arial" font-size="13px" font-style="normal" font-weight="normal" text-decoration="none" x="645" y="223.5">-enterAsk()</text></g></g><g transform="translate(-238,2) scale(1,1)"><g><path fill="none" stroke="none"/><text fill="#000000" stroke="none" font-family="Arial" font-size="13px" font-style="normal" font-weight="normal" text-decoration="none" x="645" y="238.5">-enterBid()</text></g></g><g transform="translate(-238,2) scale(1,1)"><path fill="none" stroke="#000000" d="M 949 244 L 946 479" stroke-miterlimit="10"/></g><g transform="translate(-238,2) scale(1,1)"><path fill="#000000" stroke="none" d="M 941.9205509184543 468.78441899884905 L 946 479 L 950.3389004906081 468.89188729125954 L 946.280828181524 457.00179244728196"/></g><g transform="translate(-238,2) scale(1,1)"><path fill="none" stroke="#000000" d="M 941.9205509184543 468.78441899884905 L 946 479 L 950.3389004906081 468.89188729125954 L 946.280828181524 457.00179244728196 L 941.9205509184543 468.78441899884905" stroke-miterlimit="10"/></g><g transform="translate(-238,2) scale(1,1)"><g><path fill="none" stroke="none"/><text fill="#000000" stroke="none" font-family="Arial" font-size="13px" font-style="normal" font-weight="normal" text-decoration="none" x="942.0634765625" y="352.5">-m_clInterpreter</text></g></g><g transform="translate(-238,2) scale(1,1)"><g><path fill="none" stroke="none"/><text fill="#000000" stroke="none" font-family="Arial" font-size="13px" font-style="normal" font-weight="normal" text-decoration="none" x="932.0205078125" y="271.5">1</text></g></g><g transform="translate(-238,2) scale(1,1)"><g><path fill="none" stroke="none"/><text fill="#000000" stroke="none" font-family="Arial" font-size="13px" font-style="normal" font-weight="normal" text-decoration="none" x="929.0205078125" y="463.5">1</text></g></g><g transform="translate(-238,2) scale(1,1)"><rect fill="#C0C0C0" stroke="none" x="1303" y="127" width="560" height="117" opacity="0.2"/></g><g transform="translate(-238,2) scale(1,1)"><rect fill="#ffffff" stroke="none" x="1296" y="120" width="560" height="117"/></g><g transform="translate(-238,2) scale(1,1)"><path fill="none" stroke="#000000" d="M 1296 120 L 1856 120 L 1856 237 L 1296 237 L 1296 120 Z Z" stroke-miterlimit="10"/></g><g transform="translate(-238,2) scale(1,1)"><path fill="none" stroke="#000000" d="M 1296 145 L 1856 145" stroke-miterlimit="10"/></g><g transform="translate(-238,2) scale(1,1)"><path fill="none" stroke="#000000" d="M 1296 155 L 1856 155" stroke-miterlimit="10"/></g><g transform="translate(-238,2) scale(1,1)"><g><path fill="none" stroke="none"/><text fill="#000000" stroke="none" font-family="Arial" font-size="13px" font-style="normal" font-weight="bold" text-decoration="none" x="1541.31640625" y="139.5">CSVReader</text></g></g><g transform="translate(-238,2) scale(1,1)"><g><path fill="none" stroke="none"/><text fill="#000000" stroke="none" font-family="Arial" font-size="13px" font-style="normal" font-weight="normal" text-decoration="none" x="1301" y="172.5">«constructor»+CSVReader()</text></g></g><g transform="translate(-238,2) scale(1,1)"><g><path fill="none" stroke="none"/><text fill="#000000" stroke="none" font-family="Arial" font-size="13px" font-style="normal" font-weight="normal" text-decoration="none" x="1301" y="187.5">+readCSV(csvFile): readCSV[*]</text><path fill="none" stroke="#000000" d="M 1301 187.5 L 1482.70166015625 187.5" stroke-miterlimit="10"/></g></g><g transform="translate(-238,2) scale(1,1)"><g><path fill="none" stroke="none"/><text fill="#000000" stroke="none" font-family="Arial" font-size="13px" font-style="normal" font-weight="normal" text-decoration="none" x="1301" y="202.5">+tokenize(csvLine, separator: char): tokenize[*]</text><path fill="none" stroke="#000000" d="M 1301 202.5 L 1572.33056640625 202.5" stroke-miterlimit="10"/></g></g><g transform="translate(-238,2) scale(1,1)"><g><path fill="none" stroke="none"/><text fill="#000000" stroke="none" font-family="Arial" font-size="13px" font-style="normal" font-weight="normal" text-decoration="none" x="1301" y="217.5">+stringsToOBE(price, amount, timestamp, product, _orderType: OrderBookType): stringsToOBE</text><path fill="none" stroke="#000000" d="M 1301 217.5 L 1851.2021484375 217.5" stroke-miterlimit="10"/></g></g><g transform="translate(-238,2) scale(1,1)"><g><path fill="none" stroke="none"/><text fill="#000000" stroke="none" font-family="Arial" font-size="13px" font-style="normal" font-weight="normal" text-decoration="none" x="1301" y="232.5">-stringsToOBE(tokens[*]): stringsToOBE</text><path fill="none" stroke="#000000" d="M 1301 232.5 L 1530.74072265625 232.5" stroke-miterlimit="10"/></g></g><g transform="translate(-238,2) scale(1,1)"><path fill="none" stroke="#000000" d="M 1493 311 L 1539 238" stroke-miterlimit="10" stroke-dasharray="3"/></g><g transform="translate(-238,2) scale(1,1)"><path fill="none" stroke="#000000" d="M 1537.143485701484 248.84220248194092 L 1539 238 L 1530.0206512521715 244.35384104812758" stroke-miterlimit="10"/></g><g transform="translate(-238,2) scale(1,1)"><g><path fill="none" stroke="none"/><text fill="#000000" stroke="none" font-family="Arial" font-size="13px" font-style="normal" font-weight="normal" text-decoration="none" x="1469.38525390625" y="263.5">«uses»</text></g></g><g transform="translate(-238,2) scale(1,1)"><rect fill="#C0C0C0" stroke="none" x="263" y="591" width="418.07470703125" height="190" opacity="0.2"/></g><g transform="translate(-238,2) scale(1,1)"><rect fill="#ffffff" stroke="none" x="256" y="584" width="418.07470703125" height="190"/></g><g transform="translate(-238,2) scale(1,1)"><path fill="none" stroke="#000000" d="M 256 584 L 674.07470703125 584 L 674.07470703125 774 L 256 774 L 256 584 Z Z" stroke-miterlimit="10"/></g><g transform="translate(-238,2) scale(1,1)"><path fill="none" stroke="#000000" d="M 256 609 L 674.07470703125 609" stroke-miterlimit="10"/></g><g transform="translate(-238,2) scale(1,1)"><path fill="none" stroke="#000000" d="M 256 737 L 674.07470703125 737" stroke-miterlimit="10"/></g><g transform="translate(-238,2) scale(1,1)"><g><path fill="none" stroke="none"/><text fill="#000000" stroke="none" font-family="Arial" font-size="13px" font-style="normal" font-weight="bold" text-decoration="none" x="455.281005859375" y="603.5">Bot</text></g></g><g transform="translate(-238,2) scale(1,1)"><g><path fill="none" stroke="none"/><text fill="#000000" stroke="none" font-family="Arial" font-size="13px" font-style="normal" font-weight="normal" text-decoration="none" x="261" y="626.5">-m_currentTime: string</text></g></g><g transform="translate(-238,2) scale(1,1)"><g><path fill="none" stroke="none"/><text fill="#000000" stroke="none" font-family="Arial" font-size="13px" font-style="normal" font-weight="normal" text-decoration="none" x="261" y="641.5">+m_orderBook: OrderBook</text></g></g><g transform="translate(-238,2) scale(1,1)"><g><path fill="none" stroke="none"/><text fill="#000000" stroke="none" font-family="Arial" font-size="13px" font-style="normal" font-weight="normal" text-decoration="none" x="261" y="656.5">+m_wallet: Wallet</text></g></g><g transform="translate(-238,2) scale(1,1)"><g><path fill="none" stroke="none"/><text fill="#000000" stroke="none" font-family="Arial" font-size="13px" font-style="normal" font-weight="normal" text-decoration="none" x="261" y="671.5">+m_logger: std::ofstream</text></g></g><g transform="translate(-238,2) scale(1,1)"><g><path fill="none" stroke="none"/><text fill="#000000" stroke="none" font-family="Arial" font-size="13px" font-style="normal" font-weight="normal" text-decoration="none" x="261" y="686.5">+m_avgPrices: std::map&lt;std::string, RollingAverageManager&gt;</text></g></g><g transform="translate(-238,2) scale(1,1)"><g><path fill="none" stroke="none"/><text fill="#000000" stroke="none" font-family="Arial" font-size="13px" font-style="normal" font-weight="normal" text-decoration="none" x="261" y="701.5">+m_historicalSales: OrderBookEntry[0..*]</text></g></g><g transform="translate(-238,2) scale(1,1)"><g><path fill="none" stroke="none"/><text fill="#000000" stroke="none" font-family="Arial" font-size="13px" font-style="normal" font-weight="normal" text-decoration="none" x="261" y="716.5">+m_historicalAsks: OrderBookEntry[0..*]</text></g></g><g transform="translate(-238,2) scale(1,1)"><g><path fill="none" stroke="none"/><text fill="#000000" stroke="none" font-family="Arial" font-size="13px" font-style="normal" font-weight="normal" text-decoration="none" x="261" y="731.5">+m_historicalBids: OrderBookEntry[0..*]</text></g></g><g transform="translate(-238,2) scale(1,1)"><g><path fill="none" stroke="none"/><text fill="#000000" stroke="none" font-family="Arial" font-size="13px" font-style="normal" font-weight="normal" text-decoration="none" x="261" y="754.5">+getRemote(): BotRemoteControl</text></g></g><g transform="translate(-238,2) scale(1,1)"><g><path fill="none" stroke="none"/><text fill="#000000" stroke="none" font-family="Arial" font-size="13px" font-style="normal" font-weight="normal" text-decoration="none" x="261" y="769.5">«constructor»+Bot(orderBook: OrderBook, wallet: Wallet)</text></g></g><g transform="translate(-238,2) scale(1,1)"><path fill="#C0C0C0" stroke="none" d="M 431.164794921875 130.5 C 431.164794921875 124.1487248 436.313519721875 119 442.664794921875 119 C 449.016070121875 119 454.164794921875 124.1487248 454.164794921875 130.5 C 454.164794921875 136.8512752 449.016070121875 142 442.664794921875 142 C 436.313519721875 142 431.164794921875 136.8512752 431.164794921875 130.5 Z" opacity="0.2"/></g><g transform="translate(-238,2) scale(1,1)"><path fill="#ffffff" stroke="none" d="M 424.164794921875 123.5 C 424.164794921875 117.1487248 429.313519721875 112 435.664794921875 112 C 442.016070121875 112 447.164794921875 117.1487248 447.164794921875 123.5 C 447.164794921875 129.8512752 442.016070121875 135 435.664794921875 135 C 429.313519721875 135 424.164794921875 129.8512752 424.164794921875 123.5 Z"/></g><g transform="translate(-238,2) scale(1,1)"><path fill="none" stroke="#000000" d="M 424.164794921875 123.5 C 424.164794921875 117.1487248 429.313519721875 112 435.664794921875 112 C 442.016070121875 112 447.164794921875 117.1487248 447.164794921875 123.5 C 447.164794921875 129.8512752 442.016070121875 135 435.664794921875 135 C 429.313519721875 135 424.164794921875 129.8512752 424.164794921875 123.5 Z" stroke-miterlimit="10"/></g><g transform="translate(-238,2) scale(1,1)"><path fill="none" stroke="#000000" d="M 248 160 L 623.32958984375 160" stroke-miterlimit="10"/></g><g transform="translate(-238,2) scale(1,1)"><path fill="none" stroke="#000000" d="M 248 228 L 623.32958984375 228" stroke-miterlimit="10"/></g><g transform="translate(-238,2) scale(1,1)"><g><path fill="none" stroke="none"/><text fill="#000000" stroke="none" font-family="Arial" font-size="13px" font-style="normal" font-weight="bold" text-decoration="none" x="418.68798828125" y="154.5">IActor</text></g></g><g transform="translate(-238,2) scale(1,1)"><g><path fill="none" stroke="none"/><text fill="#000000" stroke="none" font-family="Arial" font-size="13px" font-style="normal" font-weight="normal" text-decoration="none" x="253" y="177.5">+enterAsk_Event: std::function&lt;void(OrderBookEntry)&gt;</text></g></g><g transform="translate(-238,2) scale(1,1)"><g><path fill="none" stroke="none"/><text fill="#000000" stroke="none" font-family="Arial" font-size="13px" font-style="normal" font-weight="normal" text-decoration="none" x="253" y="192.5">+enterBid_Event: std::function&lt;void(OrderBookEntry)&gt;</text></g></g><g transform="translate(-238,2) scale(1,1)"><g><path fill="none" stroke="none"/><text fill="#000000" stroke="none" font-family="Arial" font-size="13px" font-style="normal" font-weight="normal" text-decoration="none" x="253" y="207.5">+gotoNextTimeFrame_Event: std::function&lt;void(void)&gt;</text></g></g><g transform="translate(-238,2) scale(1,1)"><g><path fill="none" stroke="none"/><text fill="#000000" stroke="none" font-family="Arial" font-size="13px" font-style="normal" font-weight="normal" text-decoration="none" x="253" y="222.5">+quitRequest_Event: std::function&lt;void(void)&gt;</text></g></g><g transform="translate(-238,2) scale(1,1)"><g><path fill="none" stroke="none"/><text fill="#000000" stroke="none" font-family="Arial" font-size="13px" font-style="italic" font-weight="normal" text-decoration="none" x="253" y="245.5">+ProcessFrame(currentTime: std::string)</text></g></g><g transform="translate(-238,2) scale(1,1)"><g><path fill="none" stroke="none"/><text fill="#000000" stroke="none" font-family="Arial" font-size="13px" font-style="italic" font-weight="normal" text-decoration="none" x="253" y="260.5">+saleCompleted(obe: OrderBookEntry)</text></g></g><g transform="translate(-238,2) scale(1,1)"><path fill="none" stroke="#000000" d="M 459 583 L 435.4166666666667 135" stroke-miterlimit="10"/></g><g transform="translate(-238,2) scale(1,1)"><path fill="none" stroke="#000000" d="M 639 164 L 447.164794921875 125.70328776041667" stroke-miterlimit="10"/></g><g transform="translate(-238,2) scale(1,1)"><path fill="none" stroke="#000000" d="M 675 639 L 815 612" stroke-miterlimit="10"/></g><g transform="translate(-238,2) scale(1,1)"><path fill="#000000" stroke="none" d="M 805.818352387176 618.0578335330316 L 815 612 L 804.2240595400009 609.7911298810128 L 793.3980623333277 616.1660879785725"/></g><g transform="translate(-238,2) scale(1,1)"><path fill="none" stroke="#000000" d="M 805.818352387176 618.0578335330316 L 815 612 L 804.2240595400009 609.7911298810128 L 793.3980623333277 616.1660879785725 L 805.818352387176 618.0578335330316" stroke-miterlimit="10"/></g><g transform="translate(-238,2) scale(1,1)"><g><path fill="none" stroke="none"/><text fill="#000000" stroke="none" font-family="Arial" font-size="13px" font-style="normal" font-weight="normal" text-decoration="none" x="721.8486328125" y="616.5">-m_bot</text></g></g><g transform="translate(-238,2) scale(1,1)"><path fill="#C0C0C0" stroke="none" d="M 833.5 348.5 C 833.5 341.0441552 839.5441552 335 847 335 C 854.4558448 335 860.5 341.0441552 860.5 348.5 C 860.5 355.9558448 854.4558448 362 847 362 C 839.5441552 362 833.5 355.9558448 833.5 348.5 Z" opacity="0.2"/></g><g transform="translate(-238,2) scale(1,1)"><path fill="none" stroke="#000000" d="M 848.5370826138155 351.457926201924 A 13.5 13.5 0 1 1 831.4629173861845 330.542073798076" stroke-miterlimit="10"/></g><g transform="translate(-238,2) scale(1,1)"><path fill="#ffffff" stroke="none" d="M 829.5 341.5 C 829.5 335.7010096 834.2010096 331 840 331 C 845.7989904 331 850.5 335.7010096 850.5 341.5 C 850.5 347.2989904 845.7989904 352 840 352 C 834.2010096 352 829.5 347.2989904 829.5 341.5 Z"/></g><g transform="translate(-238,2) scale(1,1)"><path fill="none" stroke="#000000" d="M 829.5 341.5 C 829.5 335.7010096 834.2010096 331 840 331 C 845.7989904 331 850.5 335.7010096 850.5 341.5 C 850.5 347.2989904 845.7989904 352 840 352 C 834.2010096 352 829.5 347.2989904 829.5 341.5 Z" stroke-miterlimit="10"/></g><g transform="translate(-238,2) scale(1,1)"><path fill="none" stroke="#000000" d="M 792 380 L 888 380" stroke-miterlimit="10"/></g><g transform="translate(-238,2) scale(1,1)"><g><path fill="none" stroke="none"/><text fill="#000000" stroke="none" font-family="Arial" font-size="13px" font-style="normal" font-weight="bold" text-decoration="none" x="807.484130859375" y="374.5">IBotControl</text></g></g><g transform="translate(-238,2) scale(1,1)"><g><path fill="none" stroke="none"/><text fill="#000000" stroke="none" font-family="Arial" font-size="13px" font-style="italic" font-weight="normal" text-decoration="none" x="797" y="397.5">+logWallet()</text></g></g><g transform="translate(-238,2) scale(1,1)"><g><path fill="none" stroke="none"/><text fill="#000000" stroke="none" font-family="Arial" font-size="13px" font-style="italic" font-weight="normal" text-decoration="none" x="797" y="412.5">+logBids()</text></g></g><g transform="translate(-238,2) scale(1,1)"><g><path fill="none" stroke="none"/><text fill="#000000" stroke="none" font-family="Arial" font-size="13px" font-style="italic" font-weight="normal" text-decoration="none" x="797" y="427.5">+logAsks()</text></g></g><g transform="translate(-238,2) scale(1,1)"><g><path fill="none" stroke="none"/><text fill="#000000" stroke="none" font-family="Arial" font-size="13px" font-style="italic" font-weight="normal" text-decoration="none" x="797" y="442.5">+logSales()</text></g></g><g transform="translate(-238,2) scale(1,1)"><path fill="none" stroke="#000000" d="M 589 583 L 831.9294117647058 355" stroke-miterlimit="10"/></g><g transform="translate(-238,2) scale(1,1)"><rect fill="#C0C0C0" stroke="none" x="487" y="311" width="233.0087890625" height="96" opacity="0.2"/></g><g transform="translate(-238,2) scale(1,1)"><rect fill="#ffffff" stroke="none" x="480" y="304" width="233.0087890625" height="96"/></g><g transform="translate(-238,2) scale(1,1)"><path fill="none" stroke="#000000" d="M 480 304 L 713.0087890625 304 L 713.0087890625 400 L 480 400 L 480 304 Z Z" stroke-miterlimit="10"/></g><g transform="translate(-238,2) scale(1,1)"><path fill="none" stroke="#000000" d="M 480 329 L 713.0087890625 329" stroke-miterlimit="10"/></g><g transform="translate(-238,2) scale(1,1)"><g><path fill="none" stroke="none"/><text fill="#000000" stroke="none" font-family="Arial" font-size="13px" font-style="normal" font-weight="bold" text-decoration="none" x="543.034912109375" y="323.5">BotRemoteControl</text></g></g><g transform="translate(-238,2) scale(1,1)"><g><path fill="none" stroke="none"/><text fill="#000000" stroke="none" font-family="Arial" font-size="13px" font-style="normal" font-weight="normal" text-decoration="none" x="485" y="346.5">+logWallet: std::function&lt;void()&gt;</text></g></g><g transform="translate(-238,2) scale(1,1)"><g><path fill="none" stroke="none"/><text fill="#000000" stroke="none" font-family="Arial" font-size="13px" font-style="normal" font-weight="normal" text-decoration="none" x="485" y="361.5">+logBids: std::function&lt;void()&gt;</text></g></g><g transform="translate(-238,2) scale(1,1)"><g><path fill="none" stroke="none"/><text fill="#000000" stroke="none" font-family="Arial" font-size="13px" font-style="normal" font-weight="normal" text-decoration="none" x="485" y="376.5">+logAsks: std::function&lt;void()&gt;</text></g></g><g transform="translate(-238,2) scale(1,1)"><g><path fill="none" stroke="none"/><text fill="#000000" stroke="none" font-family="Arial" font-size="13px" font-style="normal" font-weight="normal" text-decoration="none" x="485" y="391.5">+logSales: std::function&lt;void()&gt;</text></g></g><g transform="translate(-238,2) scale(1,1)"><path fill="none" stroke="#000000" d="M 672 303 L 764 244" stroke-miterlimit="10"/></g><g transform="translate(-238,2) scale(1,1)"><path fill="#FFFFFF" stroke="none" d="M 757.7177734589975 253.02959742665882 L 764 244 L 753.172905440132 245.94268458368208 L 745.4810042881196 255.87631246740153"/></g><g transform="translate(-238,2) scale(1,1)"><path fill="none" stroke="#000000" d="M 757.7177734589975 253.02959742665882 L 764 244 L 753.172905440132 245.94268458368208 L 745.4810042881196 255.87631246740153 L 757.7177734589975 253.02959742665882" stroke-miterlimit="10"/></g><g transform="translate(-238,2) scale(1,1)"><path fill="none" stroke="#000000" d="M 714 369 L 826.5 352.0204081632653" stroke-miterlimit="10"/></g><g transform="translate(-238,2) scale(1,1)"><path fill="none" stroke="#000000" d="M 503 583 L 576 401" stroke-miterlimit="10" stroke-dasharray="3"/></g><g transform="translate(-238,2) scale(1,1)"><path fill="none" stroke="#000000" d="M 576.1237004795295 411.99930444125283 L 576 401 L 568.3097866891661 408.86515220665655" stroke-miterlimit="10"/></g><g transform="translate(-238,2) scale(1,1)"><rect fill="#C0C0C0" stroke="none" x="487" y="855" width="274.37646484375" height="130" opacity="0.2"/></g><g transform="translate(-238,2) scale(1,1)"><rect fill="#ffffff" stroke="none" x="480" y="848" width="274.37646484375" height="130"/></g><g transform="translate(-238,2) scale(1,1)"><path fill="none" stroke="#000000" d="M 480 848 L 754.37646484375 848 L 754.37646484375 978 L 480 978 L 480 848 Z Z" stroke-miterlimit="10"/></g><g transform="translate(-238,2) scale(1,1)"><path fill="none" stroke="#000000" d="M 480 873 L 754.37646484375 873" stroke-miterlimit="10"/></g><g transform="translate(-238,2) scale(1,1)"><path fill="none" stroke="#000000" d="M 480 926 L 754.37646484375 926" stroke-miterlimit="10"/></g><g transform="translate(-238,2) scale(1,1)"><g><path fill="none" stroke="none"/><text fill="#000000" stroke="none" font-family="Arial" font-size="13px" font-style="normal" font-weight="bold" text-decoration="none" x="547.5703125" y="867.5">RollingAverageManager</text></g></g><g transform="translate(-238,2) scale(1,1)"><g><path fill="none" stroke="none"/><text fill="#000000" stroke="none" font-family="Arial" font-size="13px" font-style="normal" font-weight="normal" text-decoration="none" x="485" y="890.5">-m_size</text></g></g><g transform="translate(-238,2) scale(1,1)"><g><path fill="none" stroke="none"/><text fill="#000000" stroke="none" font-family="Arial" font-size="13px" font-style="normal" font-weight="normal" text-decoration="none" x="485" y="905.5">-m_index</text></g></g><g transform="translate(-238,2) scale(1,1)"><g><path fill="none" stroke="none"/><text fill="#000000" stroke="none" font-family="Arial" font-size="13px" font-style="normal" font-weight="normal" text-decoration="none" x="485" y="920.5">-m_avgs</text></g></g><g transform="translate(-238,2) scale(1,1)"><g><path fill="none" stroke="none"/><text fill="#000000" stroke="none" font-family="Arial" font-size="13px" font-style="normal" font-weight="normal" text-decoration="none" x="485" y="943.5">«constructor»+RollingAverageManager()</text></g></g><g transform="translate(-238,2) scale(1,1)"><g><path fill="none" stroke="none"/><text fill="#000000" stroke="none" font-family="Arial" font-size="13px" font-style="normal" font-weight="normal" text-decoration="none" x="485" y="958.5">+insert(avgPrice: double)</text></g></g><g transform="translate(-238,2) scale(1,1)"><g><path fill="none" stroke="none"/><text fill="#000000" stroke="none" font-family="Arial" font-size="13px" font-style="normal" font-weight="normal" text-decoration="none" x="485" y="973.5">+average(): double</text></g></g><g transform="translate(-238,2) scale(1,1)"><path fill="none" stroke="#000000" d="M 527 775 L 574 847" stroke-miterlimit="10"/></g><g transform="translate(-238,2) scale(1,1)"><path fill="none" stroke="#000000" d="M 564.9198908511439 840.791005085776 L 574 847 L 571.9698156551304 836.1889708387292" stroke-miterlimit="10"/></g><g transform="translate(-238,2) scale(1,1)"><rect fill="#C0C0C0" stroke="none" x="1127" y="607" width="715.32275390625" height="205" opacity="0.2"/></g><g transform="translate(-238,2) scale(1,1)"><rect fill="#ffffff" stroke="none" x="1120" y="600" width="715.32275390625" height="205"/></g><g transform="translate(-238,2) scale(1,1)"><path fill="none" stroke="#000000" d="M 1120 600 L 1835.32275390625 600 L 1835.32275390625 805 L 1120 805 L 1120 600 Z Z" stroke-miterlimit="10"/></g><g transform="translate(-238,2) scale(1,1)"><path fill="none" stroke="#000000" d="M 1120 625 L 1835.32275390625 625" stroke-miterlimit="10"/></g><g transform="translate(-238,2) scale(1,1)"><path fill="none" stroke="#000000" d="M 1120 723 L 1835.32275390625 723" stroke-miterlimit="10"/></g><g transform="translate(-238,2) scale(1,1)"><g><path fill="none" stroke="none"/><text fill="#000000" stroke="none" font-family="Arial" font-size="13px" font-style="normal" font-weight="bold" text-decoration="none" x="1431.06005859375" y="619.5">OrderBookEntry</text></g></g><g transform="translate(-238,2) scale(1,1)"><g><path fill="none" stroke="none"/><text fill="#000000" stroke="none" font-family="Arial" font-size="13px" font-style="normal" font-weight="normal" text-decoration="none" x="1125" y="642.5">-m_price: double</text></g></g><g transform="translate(-238,2) scale(1,1)"><g><path fill="none" stroke="none"/><text fill="#000000" stroke="none" font-family="Arial" font-size="13px" font-style="normal" font-weight="normal" text-decoration="none" x="1125" y="657.5">-m_amount: double</text></g></g><g transform="translate(-238,2) scale(1,1)"><g><path fill="none" stroke="none"/><text fill="#000000" stroke="none" font-family="Arial" font-size="13px" font-style="normal" font-weight="normal" text-decoration="none" x="1125" y="672.5">-m_timestamp: std::string</text></g></g><g transform="translate(-238,2) scale(1,1)"><g><path fill="none" stroke="none"/><text fill="#000000" stroke="none" font-family="Arial" font-size="13px" font-style="normal" font-weight="normal" text-decoration="none" x="1125" y="687.5">-m_product: std::string</text></g></g><g transform="translate(-238,2) scale(1,1)"><g><path fill="none" stroke="none"/><text fill="#000000" stroke="none" font-family="Arial" font-size="13px" font-style="normal" font-weight="normal" text-decoration="none" x="1125" y="702.5">-m_orderType: OrderBookType</text></g></g><g transform="translate(-238,2) scale(1,1)"><g><path fill="none" stroke="none"/><text fill="#000000" stroke="none" font-family="Arial" font-size="13px" font-style="normal" font-weight="normal" text-decoration="none" x="1125" y="717.5">-m_username: std::string</text></g></g><g transform="translate(-238,2) scale(1,1)"><g><path fill="none" stroke="none"/><text fill="#000000" stroke="none" font-family="Arial" font-size="13px" font-style="normal" font-weight="normal" text-decoration="none" x="1125" y="740.5">«constructor»+OrderBookEntry(price: double, amount: double, timestamp, product, orderType: OrderBookType, username)</text></g></g><g transform="translate(-238,2) scale(1,1)"><g><path fill="none" stroke="none"/><text fill="#000000" stroke="none" font-family="Arial" font-size="13px" font-style="normal" font-weight="normal" text-decoration="none" x="1125" y="755.5">+stringToOrderBookType(std): stringToOrderBookType</text></g></g><g transform="translate(-238,2) scale(1,1)"><g><path fill="none" stroke="none"/><text fill="#000000" stroke="none" font-family="Arial" font-size="13px" font-style="normal" font-weight="normal" text-decoration="none" x="1125" y="770.5">+compareByTimestamp(e1, e2): compareByTimestamp</text></g></g><g transform="translate(-238,2) scale(1,1)"><g><path fill="none" stroke="none"/><text fill="#000000" stroke="none" font-family="Arial" font-size="13px" font-style="normal" font-weight="normal" text-decoration="none" x="1125" y="785.5">+compareByPriceAsc(e1, e2): compareByPriceAsc</text></g></g><g transform="translate(-238,2) scale(1,1)"><g><path fill="none" stroke="none"/><text fill="#000000" stroke="none" font-family="Arial" font-size="13px" font-style="normal" font-weight="normal" text-decoration="none" x="1125" y="800.5">+compareByPriceDesc(e1, e2): compareByPriceDesc</text></g></g><g transform="translate(-238,2) scale(1,1)"><path fill="none" stroke="#000000" d="M 1460 599 L 1446 518" stroke-miterlimit="10"/></g><g transform="translate(-238,2) scale(1,1)"><path fill="#FFFFFF" stroke="none" d="M 1451.8788645347354 527.2972550670739 L 1446 518 L 1443.5828328738394 528.7311370825374 L 1449.7469142748137 539.6785754471367"/></g><g transform="translate(-238,2) scale(1,1)"><path fill="none" stroke="#000000" d="M 1451.8788645347354 527.2972550670739 L 1446 518 L 1443.5828328738394 528.7311370825374 L 1449.7469142748137 539.6785754471367 L 1451.8788645347354 527.2972550670739" stroke-miterlimit="10"/></g><g transform="translate(-238,2) scale(1,1)"><g><path fill="none" stroke="none"/><text fill="#000000" stroke="none" font-family="Arial" font-size="13px" font-style="normal" font-weight="normal" text-decoration="none" x="1408.52783203125" y="566.5">-m_orders</text></g></g><g transform="translate(-238,2) scale(1,1)"><g><path fill="none" stroke="none"/><text fill="#000000" stroke="none" font-family="Arial" font-size="13px" font-style="normal" font-weight="normal" text-decoration="none" x="1465.812255859375" y="581.5">*</text></g></g><g transform="translate(-238,2) scale(1,1)"><g><path fill="none" stroke="none"/><text fill="#000000" stroke="none" font-family="Arial" font-size="13px" font-style="normal" font-weight="normal" text-decoration="none" x="1458.0205078125" y="543.5">1</text></g></g></g></svg>