<svg version="1.1" xmlns="http://www.w3.org/2000/svg" xmlns:xlink="http://www.w3.org/1999/xlink" width="863" height="1996"><defs/><g><g transform="translate(-278,-30) scale(1,1)"><path fill="#ffffff" stroke="none" d="M 520.5 1984 L 575.13720703125 1984 Q 591.63720703125 1984 591.63720703125 2000.5 L 591.63720703125 1999.5 Q 591.63720703125 2016 575.13720703125 2016 L 520.5 2016 Q 504 2016 504 1999.5 L 504 2000.5 Q 504 1984 520.5 1984 Z"/></g><g transform="translate(-278,-30) scale(1,1)"><path fill="none" stroke="#000000" d="M 520.5 1984 L 575.13720703125 1984 Q 591.63720703125 1984 591.63720703125 2000.5 L 591.63720703125 1999.5 Q 591.63720703125 2016 575.13720703125 2016 L 520.5 2016 Q 504 2016 504 1999.5 L 504 2000.5 Q 504 1984 520.5 1984 Z" stroke-miterlimit="10"/></g><g transform="translate(-278,-30) scale(1,1)"><g><path fill="none" stroke="none"/><text fill="#000000" stroke="none" font-family="Arial" font-size="13px" font-style="normal" font-weight="normal" text-decoration="none" x="536.253173828125" y="2006.5">End</text></g></g><g transform="translate(-278,-30) scale(1,1)"><path fill="#ffffff" stroke="none" d="M 512 109 L 598 109 L 581 154 L 495 154 L 512 109"/></g><g transform="translate(-278,-30) scale(1,1)"><path fill="none" stroke="#000000" d="M 512 109 L 598 109 L 581 154 L 495 154 L 512 109 L 512 109" stroke-miterlimit="10"/></g><g transform="translate(-278,-30) scale(1,1)"><g><path fill="none" stroke="none"/><text fill="#000000" stroke="none" font-family="Arial" font-size="13px" font-style="normal" font-weight="normal" text-decoration="none" x="537.8291015625" y="131.5">set</text><text fill="#000000" stroke="none" font-family="Arial" font-size="13px" font-style="normal" font-weight="normal" text-decoration="none" x="512.067138671875" y="144.5">currentTime</text></g></g><g transform="translate(-278,-30) scale(1,1)"><path fill="#ffffff" stroke="none" d="M 511.5 40 L 580.578125 40 Q 597.078125 40 597.078125 56.5 L 597.078125 55.5 Q 597.078125 72 580.578125 72 L 511.5 72 Q 495 72 495 55.5 L 495 56.5 Q 495 40 511.5 40 Z"/></g><g transform="translate(-278,-30) scale(1,1)"><path fill="none" stroke="#000000" d="M 511.5 40 L 580.578125 40 Q 597.078125 40 597.078125 56.5 L 597.078125 55.5 Q 597.078125 72 580.578125 72 L 511.5 72 Q 495 72 495 55.5 L 495 56.5 Q 495 40 511.5 40 Z" stroke-miterlimit="10"/></g><g transform="translate(-278,-30) scale(1,1)"><g><path fill="none" stroke="none"/><text fill="#000000" stroke="none" font-family="Arial" font-size="13px" font-style="normal" font-weight="normal" text-decoration="none" x="504.5" y="62.5">processFrame</text></g></g><g transform="translate(-278,-30) scale(1,1)"><path fill="#ffffff" stroke="none" d="M 443 215 L 477 191 L 616 191 L 650 215 L 616 239 L 477 239 L 443 215"/></g><g transform="translate(-278,-30) scale(1,1)"><path fill="none" stroke="#000000" d="M 443 215 L 477 191 L 616 191 L 650 215 L 616 239 L 477 239 L 443 215 L 443 215" stroke-miterlimit="10"/></g><g transform="translate(-278,-30) scale(1,1)"><g><path fill="none" stroke="none"/><text fill="#000000" stroke="none" font-family="Arial" font-size="13px" font-style="normal" font-weight="normal" text-decoration="none" x="492.662353515625" y="213.5">for each product in</text><text fill="#000000" stroke="none" font-family="Arial" font-size="13px" font-style="normal" font-weight="normal" text-decoration="none" x="508.931396484375" y="226.5">m_avgPrices</text></g></g><g transform="translate(-278,-30) scale(1,1)"><rect fill="#ffffff" stroke="none" x="426" y="276" width="240" height="45"/></g><g transform="translate(-278,-30) scale(1,1)"><path fill="none" stroke="#000000" d="M 426 276 L 666 276 L 666 321 L 426 321 L 426 276 Z Z" stroke-miterlimit="10"/></g><g transform="translate(-278,-30) scale(1,1)"><g><path fill="none" stroke="none"/><text fill="#000000" stroke="none" font-family="Arial" font-size="13px" font-style="normal" font-weight="normal" text-decoration="none" x="437.06787109375" y="298.5">sma = average for the current product</text><text fill="#000000" stroke="none" font-family="Arial" font-size="13px" font-style="normal" font-weight="normal" text-decoration="none" x="461.576171875" y="311.5">from RollingAverageManager</text></g></g><g transform="translate(-278,-30) scale(1,1)"><rect fill="#ffffff" stroke="none" x="443" y="358" width="207" height="45"/></g><g transform="translate(-278,-30) scale(1,1)"><path fill="none" stroke="#000000" d="M 443 358 L 650 358 L 650 403 L 443 403 L 443 358 Z Z" stroke-miterlimit="10"/></g><g transform="translate(-278,-30) scale(1,1)"><g><path fill="none" stroke="none"/><text fill="#000000" stroke="none" font-family="Arial" font-size="13px" font-style="normal" font-weight="normal" text-decoration="none" x="454.919189453125" y="380.5">asks = get asks from orderBook</text><text fill="#000000" stroke="none" font-family="Arial" font-size="13px" font-style="normal" font-weight="normal" text-decoration="none" x="475.33642578125" y="393.5">for the current timeframe</text></g></g><g transform="translate(-278,-30) scale(1,1)"><rect fill="#ffffff" stroke="none" x="443" y="440" width="207" height="45"/></g><g transform="translate(-278,-30) scale(1,1)"><path fill="none" stroke="#000000" d="M 443 440 L 650 440 L 650 485 L 443 485 L 443 440 Z Z" stroke-miterlimit="10"/></g><g transform="translate(-278,-30) scale(1,1)"><g><path fill="none" stroke="none"/><text fill="#000000" stroke="none" font-family="Arial" font-size="13px" font-style="normal" font-weight="normal" text-decoration="none" x="457.801025390625" y="462.5">bids = get bids from orderBook</text><text fill="#000000" stroke="none" font-family="Arial" font-size="13px" font-style="normal" font-weight="normal" text-decoration="none" x="475.33642578125" y="475.5">for the current timeframe</text></g></g><g transform="translate(-278,-30) scale(1,1)"><path fill="#ffffff" stroke="none" d="M 438 560.5 L 546 522 L 654 560.5 L 546 599 L 438 560.5"/></g><g transform="translate(-278,-30) scale(1,1)"><path fill="none" stroke="#000000" d="M 438 560.5 L 546 522 L 654 560.5 L 546 599 L 438 560.5 L 438 560.5" stroke-miterlimit="10"/></g><g transform="translate(-278,-30) scale(1,1)"><g><path fill="none" stroke="none"/><text fill="#000000" stroke="none" font-family="Arial" font-size="13px" font-style="normal" font-weight="normal" text-decoration="none" x="502.6455078125" y="560.5">asks.size == 0 </text><text fill="#000000" stroke="none" font-family="Arial" font-size="13px" font-style="normal" font-weight="normal" text-decoration="none" x="495.41552734375" y="573.5">&amp;&amp; bids.size == 0</text></g></g><g transform="translate(-278,-30) scale(1,1)"><rect fill="#ffffff" stroke="none" x="422" y="636" width="248" height="45"/></g><g transform="translate(-278,-30) scale(1,1)"><path fill="none" stroke="#000000" d="M 422 636 L 670 636 L 670 681 L 422 681 L 422 636 Z Z" stroke-miterlimit="10"/></g><g transform="translate(-278,-30) scale(1,1)"><g><path fill="none" stroke="none"/><text fill="#000000" stroke="none" font-family="Arial" font-size="13px" font-style="normal" font-weight="normal" text-decoration="none" x="433.6845703125" y="658.5">sumOfAskPrice = sum of all asks' price</text></g></g><g transform="translate(-278,-30) scale(1,1)"><rect fill="#ffffff" stroke="none" x="415" y="718" width="263" height="32"/></g><g transform="translate(-278,-30) scale(1,1)"><path fill="none" stroke="#000000" d="M 415 718 L 678 718 L 678 750 L 415 750 L 415 718 Z Z" stroke-miterlimit="10"/></g><g transform="translate(-278,-30) scale(1,1)"><g><path fill="none" stroke="none"/><text fill="#000000" stroke="none" font-family="Arial" font-size="13px" font-style="normal" font-weight="normal" text-decoration="none" x="437.06640625" y="740.5">sumOfBidPrice = sum of all bids' price</text></g></g><g transform="translate(-278,-30) scale(1,1)"><rect fill="#ffffff" stroke="none" x="330" y="787" width="432" height="32"/></g><g transform="translate(-278,-30) scale(1,1)"><path fill="none" stroke="#000000" d="M 330 787 L 762 787 L 762 819 L 330 819 L 330 787 Z Z" stroke-miterlimit="10"/></g><g transform="translate(-278,-30) scale(1,1)"><g><path fill="none" stroke="none"/><text fill="#000000" stroke="none" font-family="Arial" font-size="13px" font-style="normal" font-weight="normal" text-decoration="none" x="350.15576171875" y="809.5">newAvg = (sumOfAskPrice + sumOfBidPrice)/(asks.size + bids.size)</text></g></g><g transform="translate(-278,-30) scale(1,1)"><rect fill="#ffffff" stroke="none" x="407" y="856" width="279" height="47"/></g><g transform="translate(-278,-30) scale(1,1)"><path fill="none" stroke="#000000" d="M 407 856 L 686 856 L 686 903 L 407 903 L 407 856 Z Z" stroke-miterlimit="10"/></g><g transform="translate(-278,-30) scale(1,1)"><g><path fill="none" stroke="none"/><text fill="#000000" stroke="none" font-family="Arial" font-size="13px" font-style="normal" font-weight="normal" text-decoration="none" x="421.720947265625" y="878.5">Insert newAvg into RollingAverageManager</text></g></g><g transform="translate(-278,-30) scale(1,1)"><path fill="#ffffff" stroke="none" d="M 475 967.5 L 546.5 940 L 618 967.5 L 546.5 995 L 475 967.5"/></g><g transform="translate(-278,-30) scale(1,1)"><path fill="none" stroke="#000000" d="M 475 967.5 L 546.5 940 L 618 967.5 L 546.5 995 L 475 967.5 L 475 967.5" stroke-miterlimit="10"/></g><g transform="translate(-278,-30) scale(1,1)"><g><path fill="none" stroke="none"/><text fill="#000000" stroke="none" font-family="Arial" font-size="13px" font-style="normal" font-weight="normal" text-decoration="none" x="519.40185546875" y="974">sma == 0</text></g></g><g transform="translate(-278,-30) scale(1,1)"><path fill="none" stroke="#000000" d="M 618 967 L 760 967 M 760 967 A 8 8 0 0 0 768 959 L 768 224 M 768 224 A 8 8 0 0 0 760 216 L 650 216" stroke-miterlimit="10"/></g><g transform="translate(-278,-30) scale(1,1)"><path fill="#000000" stroke="none" d="M 660.1626748576241 211.790482243984 L 650 216 L 660.1626748576241 220.209517756016"/></g><g transform="translate(-278,-30) scale(1,1)"><path fill="none" stroke="#000000" d="M 660.1626748576241 211.790482243984 L 650 216 L 660.1626748576241 220.209517756016 L 660.1626748576241 211.790482243984" stroke-miterlimit="10"/></g><g transform="translate(-278,-30) scale(1,1)"><g><path fill="none" stroke="none"/><text fill="#000000" stroke="none" font-family="Arial" font-size="13px" font-style="normal" font-weight="normal" text-decoration="none" x="622.5" y="935.5">yes</text></g></g><g transform="translate(-278,-30) scale(1,1)"><rect fill="#ffffff" stroke="none" x="358" y="1032" width="376" height="47"/></g><g transform="translate(-278,-30) scale(1,1)"><path fill="none" stroke="#000000" d="M 358 1032 L 734 1032 L 734 1079 L 358 1079 L 358 1032 Z Z" stroke-miterlimit="10"/></g><g transform="translate(-278,-30) scale(1,1)"><g><path fill="none" stroke="none"/><text fill="#000000" stroke="none" font-family="Arial" font-size="13px" font-style="normal" font-weight="normal" text-decoration="none" x="375.689208984375" y="1054.5">maxBidAmount = sum all asks' amounts where price &lt; sma</text></g></g><g transform="translate(-278,-30) scale(1,1)"><rect fill="#ffffff" stroke="none" x="322" y="1116" width="448" height="45"/></g><g transform="translate(-278,-30) scale(1,1)"><path fill="none" stroke="#000000" d="M 322 1116 L 770 1116 L 770 1161 L 322 1161 L 322 1116 Z Z" stroke-miterlimit="10"/></g><g transform="translate(-278,-30) scale(1,1)"><g><path fill="none" stroke="none"/><text fill="#000000" stroke="none" font-family="Arial" font-size="13px" font-style="normal" font-weight="normal" text-decoration="none" x="359.8994140625" y="1138.5">availCurrency = wallet.reserveAmount(currency, maxBidAmount)</text></g></g><g transform="translate(-278,-30) scale(1,1)"><rect fill="#ffffff" stroke="none" x="363" y="1198" width="367" height="45"/></g><g transform="translate(-278,-30) scale(1,1)"><path fill="none" stroke="#000000" d="M 363 1198 L 730 1198 L 730 1243 L 363 1243 L 363 1198 Z Z" stroke-miterlimit="10"/></g><g transform="translate(-278,-30) scale(1,1)"><g><path fill="none" stroke="none"/><text fill="#000000" stroke="none" font-family="Arial" font-size="13px" font-style="normal" font-weight="normal" text-decoration="none" x="420.232421875" y="1220.5">availableAmount = std::min(maxBidAmount,</text><text fill="#000000" stroke="none" font-family="Arial" font-size="13px" font-style="normal" font-weight="normal" text-decoration="none" x="496.27734375" y="1233.5">availableAmount)</text></g></g><g transform="translate(-278,-30) scale(1,1)"><rect fill="#ffffff" stroke="none" x="835" y="1288" width="296" height="55"/></g><g transform="translate(-278,-30) scale(1,1)"><path fill="none" stroke="#000000" d="M 835 1288 L 1131 1288 L 1131 1343 L 835 1343 L 835 1288 Z Z" stroke-miterlimit="10"/></g><g transform="translate(-278,-30) scale(1,1)"><g><path fill="none" stroke="none"/><text fill="#000000" stroke="none" font-family="Arial" font-size="13px" font-style="normal" font-weight="normal" text-decoration="none" x="859.25244140625" y="1310.5">obe = new OrderBookEntry of type bid with</text><text fill="#000000" stroke="none" font-family="Arial" font-size="13px" font-style="normal" font-weight="normal" text-decoration="none" x="874.604248046875" y="1323.5">price = sma and amount = bidAmount</text></g></g><g transform="translate(-278,-30) scale(1,1)"><path fill="#ffffff" stroke="none" d="M 427 1312 L 546.5 1280 L 666 1312 L 546.5 1344 L 427 1312"/></g><g transform="translate(-278,-30) scale(1,1)"><path fill="none" stroke="#000000" d="M 427 1312 L 546.5 1280 L 666 1312 L 546.5 1344 L 427 1312 L 427 1312" stroke-miterlimit="10"/></g><g transform="translate(-278,-30) scale(1,1)"><g><path fill="none" stroke="none"/><text fill="#000000" stroke="none" font-family="Arial" font-size="13px" font-style="normal" font-weight="normal" text-decoration="none" x="504.40234375" y="1318.5">bidAmount &gt; 0</text></g></g><g transform="translate(-278,-30) scale(1,1)"><rect fill="#ffffff" stroke="none" x="872" y="1380" width="223" height="39"/></g><g transform="translate(-278,-30) scale(1,1)"><path fill="none" stroke="#000000" d="M 872 1380 L 1095 1380 L 1095 1419 L 872 1419 L 872 1380 Z Z" stroke-miterlimit="10"/></g><g transform="translate(-278,-30) scale(1,1)"><g><path fill="none" stroke="none"/><text fill="#000000" stroke="none" font-family="Arial" font-size="13px" font-style="normal" font-weight="normal" text-decoration="none" x="903.28466796875" y="1402.5">invoke enterBid_Event(obe)</text></g></g><g transform="translate(-278,-30) scale(1,1)"><rect fill="#ffffff" stroke="none" x="856" y="1464" width="248" height="45"/></g><g transform="translate(-278,-30) scale(1,1)"><path fill="none" stroke="#000000" d="M 856 1464 L 1104 1464 L 1104 1509 L 856 1509 L 856 1464 Z Z" stroke-miterlimit="10"/></g><g transform="translate(-278,-30) scale(1,1)"><g><path fill="none" stroke="none"/><text fill="#000000" stroke="none" font-family="Arial" font-size="13px" font-style="normal" font-weight="normal" text-decoration="none" x="878.4755859375" y="1486.5">Add obe to HistoricalBids collection</text></g></g><g transform="translate(-278,-30) scale(1,1)"><rect fill="#ffffff" stroke="none" x="343" y="1463" width="407" height="47"/></g><g transform="translate(-278,-30) scale(1,1)"><path fill="none" stroke="#000000" d="M 343 1463 L 750 1463 L 750 1510 L 343 1510 L 343 1463 Z Z" stroke-miterlimit="10"/></g><g transform="translate(-278,-30) scale(1,1)"><g><path fill="none" stroke="none"/><text fill="#000000" stroke="none" font-family="Arial" font-size="13px" font-style="normal" font-weight="normal" text-decoration="none" x="376.189208984375" y="1485.5">maxAskAmount = sum all bids' amounts where price &gt; sma</text></g></g><g transform="translate(-278,-30) scale(1,1)"><rect fill="#ffffff" stroke="none" x="322" y="1547" width="448" height="45"/></g><g transform="translate(-278,-30) scale(1,1)"><path fill="none" stroke="#000000" d="M 322 1547 L 770 1547 L 770 1592 L 322 1592 L 322 1547 Z Z" stroke-miterlimit="10"/></g><g transform="translate(-278,-30) scale(1,1)"><g><path fill="none" stroke="none"/><text fill="#000000" stroke="none" font-family="Arial" font-size="13px" font-style="normal" font-weight="normal" text-decoration="none" x="340.03759765625" y="1569.5">availCurrency = wallet.reserveAmount(currency, maxAskAmount * sma)</text></g></g><g transform="translate(-278,-30) scale(1,1)"><rect fill="#ffffff" stroke="none" x="343" y="1629" width="407" height="39"/></g><g transform="translate(-278,-30) scale(1,1)"><path fill="none" stroke="#000000" d="M 343 1629 L 750 1629 L 750 1668 L 343 1668 L 343 1629 Z Z" stroke-miterlimit="10"/></g><g transform="translate(-278,-30) scale(1,1)"><g><path fill="none" stroke="none"/><text fill="#000000" stroke="none" font-family="Arial" font-size="13px" font-style="normal" font-weight="normal" text-decoration="none" x="433.6005859375" y="1651.5">availableAmount = availCurrency / sma</text></g></g><g transform="translate(-278,-30) scale(1,1)"><path fill="#ffffff" stroke="none" d="M 406 1743.5 L 546 1705 L 686 1743.5 L 546 1782 L 406 1743.5"/></g><g transform="translate(-278,-30) scale(1,1)"><path fill="none" stroke="#000000" d="M 406 1743.5 L 546 1705 L 686 1743.5 L 546 1782 L 406 1743.5 L 406 1743.5" stroke-miterlimit="10"/></g><g transform="translate(-278,-30) scale(1,1)"><g><path fill="none" stroke="none"/><text fill="#000000" stroke="none" font-family="Arial" font-size="13px" font-style="normal" font-weight="normal" text-decoration="none" x="478.984619140625" y="1743.5">maxAskAmount &gt; 0 &amp;&amp;</text><text fill="#000000" stroke="none" font-family="Arial" font-size="13px" font-style="normal" font-weight="normal" text-decoration="none" x="486.919189453125" y="1756.5">availableAmount &gt; 0</text></g></g><g transform="translate(-278,-30) scale(1,1)"><rect fill="#ffffff" stroke="none" x="820" y="1720" width="279" height="47"/></g><g transform="translate(-278,-30) scale(1,1)"><path fill="none" stroke="#000000" d="M 820 1720 L 1099 1720 L 1099 1767 L 820 1767 L 820 1720 Z Z" stroke-miterlimit="10"/></g><g transform="translate(-278,-30) scale(1,1)"><g><path fill="none" stroke="none"/><text fill="#000000" stroke="none" font-family="Arial" font-size="13px" font-style="normal" font-weight="normal" text-decoration="none" x="834.3115234375" y="1742.5">obe = new OrderBookEntry of type ask with</text><text fill="#000000" stroke="none" font-family="Arial" font-size="13px" font-style="normal" font-weight="normal" text-decoration="none" x="834.12109375" y="1755.5">price = sma and amount = availableAmount</text></g></g><g transform="translate(-278,-30) scale(1,1)"><rect fill="#ffffff" stroke="none" x="836" y="1816" width="247" height="32"/></g><g transform="translate(-278,-30) scale(1,1)"><path fill="none" stroke="#000000" d="M 836 1816 L 1083 1816 L 1083 1848 L 836 1848 L 836 1816 Z Z" stroke-miterlimit="10"/></g><g transform="translate(-278,-30) scale(1,1)"><g><path fill="none" stroke="none"/><text fill="#000000" stroke="none" font-family="Arial" font-size="13px" font-style="normal" font-weight="normal" text-decoration="none" x="877.84375" y="1838.5">invoke enterAsk_Event(obe)</text></g></g><g transform="translate(-278,-30) scale(1,1)"><rect fill="#ffffff" stroke="none" x="824" y="1888" width="263" height="32"/></g><g transform="translate(-278,-30) scale(1,1)"><path fill="none" stroke="#000000" d="M 824 1888 L 1087 1888 L 1087 1920 L 824 1920 L 824 1888 Z Z" stroke-miterlimit="10"/></g><g transform="translate(-278,-30) scale(1,1)"><g><path fill="none" stroke="none"/><text fill="#000000" stroke="none" font-family="Arial" font-size="13px" font-style="normal" font-weight="normal" text-decoration="none" x="852.53466796875" y="1910.5">Add obe to HistoricalAsks collection</text></g></g><g transform="translate(-278,-30) scale(1,1)"><path fill="none" stroke="#000000" d="M 546 72 L 546 109" stroke-miterlimit="10"/></g><g transform="translate(-278,-30) scale(1,1)"><path fill="#000000" stroke="none" d="M 541.790482243984 98.83732514237585 L 546 109 L 550.209517756016 98.83732514237585"/></g><g transform="translate(-278,-30) scale(1,1)"><path fill="none" stroke="#000000" d="M 541.790482243984 98.83732514237585 L 546 109 L 550.209517756016 98.83732514237585 L 541.790482243984 98.83732514237585" stroke-miterlimit="10"/></g><g transform="translate(-278,-30) scale(1,1)"><path fill="none" stroke="#000000" d="M 546 154 L 546 191" stroke-miterlimit="10"/></g><g transform="translate(-278,-30) scale(1,1)"><path fill="#000000" stroke="none" d="M 541.790482243984 180.83732514237585 L 546 191 L 550.209517756016 180.83732514237585"/></g><g transform="translate(-278,-30) scale(1,1)"><path fill="none" stroke="#000000" d="M 541.790482243984 180.83732514237585 L 546 191 L 550.209517756016 180.83732514237585 L 541.790482243984 180.83732514237585" stroke-miterlimit="10"/></g><g transform="translate(-278,-30) scale(1,1)"><path fill="none" stroke="#000000" d="M 546 239 L 546 276" stroke-miterlimit="10"/></g><g transform="translate(-278,-30) scale(1,1)"><path fill="#000000" stroke="none" d="M 541.790482243984 265.83732514237585 L 546 276 L 550.209517756016 265.83732514237585"/></g><g transform="translate(-278,-30) scale(1,1)"><path fill="none" stroke="#000000" d="M 541.790482243984 265.83732514237585 L 546 276 L 550.209517756016 265.83732514237585 L 541.790482243984 265.83732514237585" stroke-miterlimit="10"/></g><g transform="translate(-278,-30) scale(1,1)"><path fill="none" stroke="#000000" d="M 546 321 L 546 358" stroke-miterlimit="10"/></g><g transform="translate(-278,-30) scale(1,1)"><path fill="#000000" stroke="none" d="M 541.790482243984 347.83732514237585 L 546 358 L 550.209517756016 347.83732514237585"/></g><g transform="translate(-278,-30) scale(1,1)"><path fill="none" stroke="#000000" d="M 541.790482243984 347.83732514237585 L 546 358 L 550.209517756016 347.83732514237585 L 541.790482243984 347.83732514237585" stroke-miterlimit="10"/></g><g transform="translate(-278,-30) scale(1,1)"><path fill="none" stroke="#000000" d="M 546 403 L 546 440" stroke-miterlimit="10"/></g><g transform="translate(-278,-30) scale(1,1)"><path fill="#000000" stroke="none" d="M 541.790482243984 429.83732514237585 L 546 440 L 550.209517756016 429.83732514237585"/></g><g transform="translate(-278,-30) scale(1,1)"><path fill="none" stroke="#000000" d="M 541.790482243984 429.83732514237585 L 546 440 L 550.209517756016 429.83732514237585 L 541.790482243984 429.83732514237585" stroke-miterlimit="10"/></g><g transform="translate(-278,-30) scale(1,1)"><path fill="none" stroke="#000000" d="M 546 485 L 546 522" stroke-miterlimit="10"/></g><g transform="translate(-278,-30) scale(1,1)"><path fill="#000000" stroke="none" d="M 541.790482243984 511.83732514237585 L 546 522 L 550.209517756016 511.83732514237585"/></g><g transform="translate(-278,-30) scale(1,1)"><path fill="none" stroke="#000000" d="M 541.790482243984 511.83732514237585 L 546 522 L 550.209517756016 511.83732514237585 L 541.790482243984 511.83732514237585" stroke-miterlimit="10"/></g><g transform="translate(-278,-30) scale(1,1)"><path fill="none" stroke="#000000" d="M 546 599 L 546 636" stroke-miterlimit="10"/></g><g transform="translate(-278,-30) scale(1,1)"><path fill="#000000" stroke="none" d="M 541.790482243984 625.8373251423759 L 546 636 L 550.209517756016 625.8373251423759"/></g><g transform="translate(-278,-30) scale(1,1)"><path fill="none" stroke="#000000" d="M 541.790482243984 625.8373251423759 L 546 636 L 550.209517756016 625.8373251423759 L 541.790482243984 625.8373251423759" stroke-miterlimit="10"/></g><g transform="translate(-278,-30) scale(1,1)"><g><path fill="none" stroke="none"/><text fill="#000000" stroke="none" font-family="Arial" font-size="13px" font-style="normal" font-weight="normal" text-decoration="none" x="552.5" y="622.5">no</text></g></g><g transform="translate(-278,-30) scale(1,1)"><path fill="none" stroke="#000000" d="M 438 560 L 384 560 M 384 560 A 8 8 0 0 1 376 552 L 376 224 M 376 224 A 8 8 0 0 1 384 216 L 443 216" stroke-miterlimit="10"/></g><g transform="translate(-278,-30) scale(1,1)"><path fill="#000000" stroke="none" d="M 432.83732514237585 220.209517756016 L 443 216 L 432.83732514237585 211.790482243984"/></g><g transform="translate(-278,-30) scale(1,1)"><path fill="none" stroke="#000000" d="M 432.83732514237585 220.209517756016 L 443 216 L 432.83732514237585 211.790482243984 L 432.83732514237585 220.209517756016" stroke-miterlimit="10"/></g><g transform="translate(-278,-30) scale(1,1)"><g><path fill="none" stroke="none"/><text fill="#000000" stroke="none" font-family="Arial" font-size="13px" font-style="normal" font-weight="normal" text-decoration="none" x="398.5" y="547.5">yes</text></g></g><g transform="translate(-278,-30) scale(1,1)"><path fill="none" stroke="#000000" d="M 546 681 L 546 718" stroke-miterlimit="10"/></g><g transform="translate(-278,-30) scale(1,1)"><path fill="#000000" stroke="none" d="M 541.790482243984 707.8373251423759 L 546 718 L 550.209517756016 707.8373251423759"/></g><g transform="translate(-278,-30) scale(1,1)"><path fill="none" stroke="#000000" d="M 541.790482243984 707.8373251423759 L 546 718 L 550.209517756016 707.8373251423759 L 541.790482243984 707.8373251423759" stroke-miterlimit="10"/></g><g transform="translate(-278,-30) scale(1,1)"><path fill="none" stroke="#000000" d="M 546 750 L 546 787" stroke-miterlimit="10"/></g><g transform="translate(-278,-30) scale(1,1)"><path fill="#000000" stroke="none" d="M 541.790482243984 776.8373251423759 L 546 787 L 550.209517756016 776.8373251423759"/></g><g transform="translate(-278,-30) scale(1,1)"><path fill="none" stroke="#000000" d="M 541.790482243984 776.8373251423759 L 546 787 L 550.209517756016 776.8373251423759 L 541.790482243984 776.8373251423759" stroke-miterlimit="10"/></g><g transform="translate(-278,-30) scale(1,1)"><path fill="none" stroke="#000000" d="M 546 819 L 546 856" stroke-miterlimit="10"/></g><g transform="translate(-278,-30) scale(1,1)"><path fill="#000000" stroke="none" d="M 541.790482243984 845.8373251423759 L 546 856 L 550.209517756016 845.8373251423759"/></g><g transform="translate(-278,-30) scale(1,1)"><path fill="none" stroke="#000000" d="M 541.790482243984 845.8373251423759 L 546 856 L 550.209517756016 845.8373251423759 L 541.790482243984 845.8373251423759" stroke-miterlimit="10"/></g><g transform="translate(-278,-30) scale(1,1)"><path fill="none" stroke="#000000" d="M 546 903 L 546 940" stroke-miterlimit="10"/></g><g transform="translate(-278,-30) scale(1,1)"><path fill="#000000" stroke="none" d="M 541.790482243984 929.8373251423759 L 546 940 L 550.209517756016 929.8373251423759"/></g><g transform="translate(-278,-30) scale(1,1)"><path fill="none" stroke="#000000" d="M 541.790482243984 929.8373251423759 L 546 940 L 550.209517756016 929.8373251423759 L 541.790482243984 929.8373251423759" stroke-miterlimit="10"/></g><g transform="translate(-278,-30) scale(1,1)"><path fill="none" stroke="#000000" d="M 546 995 L 546 1032" stroke-miterlimit="10"/></g><g transform="translate(-278,-30) scale(1,1)"><path fill="#000000" stroke="none" d="M 541.790482243984 1021.8373251423759 L 546 1032 L 550.209517756016 1021.8373251423759"/></g><g transform="translate(-278,-30) scale(1,1)"><path fill="none" stroke="#000000" d="M 541.790482243984 1021.8373251423759 L 546 1032 L 550.209517756016 1021.8373251423759 L 541.790482243984 1021.8373251423759" stroke-miterlimit="10"/></g><g transform="translate(-278,-30) scale(1,1)"><g><path fill="none" stroke="none"/><text fill="#000000" stroke="none" font-family="Arial" font-size="13px" font-style="normal" font-weight="normal" text-decoration="none" x="552.5" y="1018.5">no</text></g></g><g transform="translate(-278,-30) scale(1,1)"><path fill="none" stroke="#000000" d="M 546 1079 L 546 1116" stroke-miterlimit="10"/></g><g transform="translate(-278,-30) scale(1,1)"><path fill="#000000" stroke="none" d="M 541.790482243984 1105.837325142376 L 546 1116 L 550.209517756016 1105.837325142376"/></g><g transform="translate(-278,-30) scale(1,1)"><path fill="none" stroke="#000000" d="M 541.790482243984 1105.837325142376 L 546 1116 L 550.209517756016 1105.837325142376 L 541.790482243984 1105.837325142376" stroke-miterlimit="10"/></g><g transform="translate(-278,-30) scale(1,1)"><path fill="none" stroke="#000000" d="M 546 1161 L 546 1198" stroke-miterlimit="10"/></g><g transform="translate(-278,-30) scale(1,1)"><path fill="#000000" stroke="none" d="M 541.790482243984 1187.837325142376 L 546 1198 L 550.209517756016 1187.837325142376"/></g><g transform="translate(-278,-30) scale(1,1)"><path fill="none" stroke="#000000" d="M 541.790482243984 1187.837325142376 L 546 1198 L 550.209517756016 1187.837325142376 L 541.790482243984 1187.837325142376" stroke-miterlimit="10"/></g><g transform="translate(-278,-30) scale(1,1)"><path fill="none" stroke="#000000" d="M 546 1243 L 546 1280" stroke-miterlimit="10"/></g><g transform="translate(-278,-30) scale(1,1)"><path fill="#000000" stroke="none" d="M 541.790482243984 1269.837325142376 L 546 1280 L 550.209517756016 1269.837325142376"/></g><g transform="translate(-278,-30) scale(1,1)"><path fill="none" stroke="#000000" d="M 541.790482243984 1269.837325142376 L 546 1280 L 550.209517756016 1269.837325142376 L 541.790482243984 1269.837325142376" stroke-miterlimit="10"/></g><g transform="translate(-278,-30) scale(1,1)"><path fill="none" stroke="#000000" d="M 666 1314 L 835 1314" stroke-miterlimit="10"/></g><g transform="translate(-278,-30) scale(1,1)"><path fill="#000000" stroke="none" d="M 824.8373251423759 1318.2095177560159 L 835 1314 L 824.8373251423758 1309.7904822439841"/></g><g transform="translate(-278,-30) scale(1,1)"><path fill="none" stroke="#000000" d="M 824.8373251423759 1318.2095177560159 L 835 1314 L 824.8373251423758 1309.7904822439841 L 824.8373251423759 1318.2095177560159" stroke-miterlimit="10"/></g><g transform="translate(-278,-30) scale(1,1)"><g><path fill="none" stroke="none"/><text fill="#000000" stroke="none" font-family="Arial" font-size="13px" font-style="normal" font-weight="normal" text-decoration="none" x="686.5" y="1307.5">yes</text></g></g><g transform="translate(-278,-30) scale(1,1)"><path fill="none" stroke="#000000" d="M 983 1343 L 983 1380" stroke-miterlimit="10"/></g><g transform="translate(-278,-30) scale(1,1)"><path fill="#000000" stroke="none" d="M 978.790482243984 1369.837325142376 L 983 1380 L 987.209517756016 1369.837325142376"/></g><g transform="translate(-278,-30) scale(1,1)"><path fill="none" stroke="#000000" d="M 978.790482243984 1369.837325142376 L 983 1380 L 987.209517756016 1369.837325142376 L 978.790482243984 1369.837325142376" stroke-miterlimit="10"/></g><g transform="translate(-278,-30) scale(1,1)"><path fill="none" stroke="#000000" d="M 984 1419 L 984 1464" stroke-miterlimit="10"/></g><g transform="translate(-278,-30) scale(1,1)"><path fill="#000000" stroke="none" d="M 979.790482243984 1453.837325142376 L 984 1464 L 988.209517756016 1453.837325142376"/></g><g transform="translate(-278,-30) scale(1,1)"><path fill="none" stroke="#000000" d="M 979.790482243984 1453.837325142376 L 984 1464 L 988.209517756016 1453.837325142376 L 979.790482243984 1453.837325142376" stroke-miterlimit="10"/></g><g transform="translate(-278,-30) scale(1,1)"><path fill="none" stroke="#000000" d="M 856 1486 L 750 1486" stroke-miterlimit="10"/></g><g transform="translate(-278,-30) scale(1,1)"><path fill="#000000" stroke="none" d="M 760.1626748576241 1481.7904822439841 L 750 1486 L 760.1626748576241 1490.2095177560159"/></g><g transform="translate(-278,-30) scale(1,1)"><path fill="none" stroke="#000000" d="M 760.1626748576241 1481.7904822439841 L 750 1486 L 760.1626748576241 1490.2095177560159 L 760.1626748576241 1481.7904822439841" stroke-miterlimit="10"/></g><g transform="translate(-278,-30) scale(1,1)"><path fill="none" stroke="#000000" d="M 546 1510 L 546 1547" stroke-miterlimit="10"/></g><g transform="translate(-278,-30) scale(1,1)"><path fill="#000000" stroke="none" d="M 541.790482243984 1536.837325142376 L 546 1547 L 550.209517756016 1536.837325142376"/></g><g transform="translate(-278,-30) scale(1,1)"><path fill="none" stroke="#000000" d="M 541.790482243984 1536.837325142376 L 546 1547 L 550.209517756016 1536.837325142376 L 541.790482243984 1536.837325142376" stroke-miterlimit="10"/></g><g transform="translate(-278,-30) scale(1,1)"><path fill="none" stroke="#000000" d="M 546 1592 L 546 1629" stroke-miterlimit="10"/></g><g transform="translate(-278,-30) scale(1,1)"><path fill="#000000" stroke="none" d="M 541.790482243984 1618.837325142376 L 546 1629 L 550.209517756016 1618.837325142376"/></g><g transform="translate(-278,-30) scale(1,1)"><path fill="none" stroke="#000000" d="M 541.790482243984 1618.837325142376 L 546 1629 L 550.209517756016 1618.837325142376 L 541.790482243984 1618.837325142376" stroke-miterlimit="10"/></g><g transform="translate(-278,-30) scale(1,1)"><path fill="none" stroke="#000000" d="M 546 1668 L 546 1705" stroke-miterlimit="10"/></g><g transform="translate(-278,-30) scale(1,1)"><path fill="#000000" stroke="none" d="M 541.790482243984 1694.837325142376 L 546 1705 L 550.209517756016 1694.837325142376"/></g><g transform="translate(-278,-30) scale(1,1)"><path fill="none" stroke="#000000" d="M 541.790482243984 1694.837325142376 L 546 1705 L 550.209517756016 1694.837325142376 L 541.790482243984 1694.837325142376" stroke-miterlimit="10"/></g><g transform="translate(-278,-30) scale(1,1)"><path fill="none" stroke="#000000" d="M 686 1743 L 820 1743" stroke-miterlimit="10"/></g><g transform="translate(-278,-30) scale(1,1)"><path fill="#000000" stroke="none" d="M 809.8373251423759 1747.2095177560159 L 820 1743 L 809.8373251423758 1738.7904822439841"/></g><g transform="translate(-278,-30) scale(1,1)"><path fill="none" stroke="#000000" d="M 809.8373251423759 1747.2095177560159 L 820 1743 L 809.8373251423758 1738.7904822439841 L 809.8373251423759 1747.2095177560159" stroke-miterlimit="10"/></g><g transform="translate(-278,-30) scale(1,1)"><g><path fill="none" stroke="none"/><text fill="#000000" stroke="none" font-family="Arial" font-size="13px" font-style="normal" font-weight="normal" text-decoration="none" x="742.5" y="1734.5">yes</text></g></g><g transform="translate(-278,-30) scale(1,1)"><path fill="none" stroke="#000000" d="M 959 1767 L 959 1816" stroke-miterlimit="10"/></g><g transform="translate(-278,-30) scale(1,1)"><path fill="#000000" stroke="none" d="M 954.790482243984 1805.837325142376 L 959 1816 L 963.209517756016 1805.837325142376"/></g><g transform="translate(-278,-30) scale(1,1)"><path fill="none" stroke="#000000" d="M 954.790482243984 1805.837325142376 L 959 1816 L 963.209517756016 1805.837325142376 L 954.790482243984 1805.837325142376" stroke-miterlimit="10"/></g><g transform="translate(-278,-30) scale(1,1)"><path fill="none" stroke="#000000" d="M 960 1848 L 960 1888" stroke-miterlimit="10"/></g><g transform="translate(-278,-30) scale(1,1)"><path fill="#000000" stroke="none" d="M 955.790482243984 1877.837325142376 L 960 1888 L 964.209517756016 1877.837325142376"/></g><g transform="translate(-278,-30) scale(1,1)"><path fill="none" stroke="#000000" d="M 955.790482243984 1877.837325142376 L 960 1888 L 964.209517756016 1877.837325142376 L 955.790482243984 1877.837325142376" stroke-miterlimit="10"/></g><g transform="translate(-278,-30) scale(1,1)"><path fill="none" stroke="#000000" d="M 544 1344 L 544 1463" stroke-miterlimit="10"/></g><g transform="translate(-278,-30) scale(1,1)"><path fill="#000000" stroke="none" d="M 539.790482243984 1452.837325142376 L 544 1463 L 548.209517756016 1452.837325142376"/></g><g transform="translate(-278,-30) scale(1,1)"><path fill="none" stroke="#000000" d="M 539.790482243984 1452.837325142376 L 544 1463 L 548.209517756016 1452.837325142376 L 539.790482243984 1452.837325142376" stroke-miterlimit="10"/></g><g transform="translate(-278,-30) scale(1,1)"><g><path fill="none" stroke="none"/><text fill="#000000" stroke="none" font-family="Arial" font-size="13px" font-style="normal" font-weight="normal" text-decoration="none" x="561.385009765625" y="1364.5">no</text></g></g><g transform="translate(-278,-30) scale(1,1)"><path fill="#ffffff" stroke="none" d="M 456 1903.5 L 547.5 1872 L 639 1903.5 L 547.5 1935 L 456 1903.5"/></g><g transform="translate(-278,-30) scale(1,1)"><path fill="none" stroke="#000000" d="M 456 1903.5 L 547.5 1872 L 639 1903.5 L 547.5 1935 L 456 1903.5 L 456 1903.5" stroke-miterlimit="10"/></g><g transform="translate(-278,-30) scale(1,1)"><g><path fill="none" stroke="none"/><text fill="#000000" stroke="none" font-family="Arial" font-size="13px" font-style="normal" font-weight="normal" text-decoration="none" x="520.75732421875" y="1910">goto next</text></g></g><g transform="translate(-278,-30) scale(1,1)"><path fill="none" stroke="#000000" d="M 824 1904 L 639 1904" stroke-miterlimit="10"/></g><g transform="translate(-278,-30) scale(1,1)"><path fill="#000000" stroke="none" d="M 649.1626748576241 1899.7904822439841 L 639 1904 L 649.1626748576241 1908.2095177560159"/></g><g transform="translate(-278,-30) scale(1,1)"><path fill="none" stroke="#000000" d="M 649.1626748576241 1899.7904822439841 L 639 1904 L 649.1626748576241 1908.2095177560159 L 649.1626748576241 1899.7904822439841" stroke-miterlimit="10"/></g><g transform="translate(-278,-30) scale(1,1)"><path fill="none" stroke="#000000" d="M 456 1904 L 296 1904 M 296 1904 A 8 8 0 0 1 288 1896 L 288 224 M 288 224 A 8 8 0 0 1 296 216 L 443 216" stroke-miterlimit="10"/></g><g transform="translate(-278,-30) scale(1,1)"><path fill="#000000" stroke="none" d="M 432.83732514237585 220.209517756016 L 443 216 L 432.83732514237585 211.790482243984"/></g><g transform="translate(-278,-30) scale(1,1)"><path fill="none" stroke="#000000" d="M 432.83732514237585 220.209517756016 L 443 216 L 432.83732514237585 211.790482243984 L 432.83732514237585 220.209517756016" stroke-miterlimit="10"/></g><g transform="translate(-278,-30) scale(1,1)"><g><path fill="none" stroke="none"/><text fill="#000000" stroke="none" font-family="Arial" font-size="13px" font-style="normal" font-weight="normal" text-decoration="none" x="414.5" y="1891.5">yes</text></g></g><g transform="translate(-278,-30) scale(1,1)"><path fill="none" stroke="#000000" d="M 546 1782 L 546 1872" stroke-miterlimit="10"/></g><g transform="translate(-278,-30) scale(1,1)"><path fill="#000000" stroke="none" d="M 541.790482243984 1861.837325142376 L 546 1872 L 550.209517756016 1861.837325142376"/></g><g transform="translate(-278,-30) scale(1,1)"><path fill="none" stroke="#000000" d="M 541.790482243984 1861.837325142376 L 546 1872 L 550.209517756016 1861.837325142376 L 541.790482243984 1861.837325142376" stroke-miterlimit="10"/></g><g transform="translate(-278,-30) scale(1,1)"><path fill="none" stroke="#000000" d="M 547 1935 L 547 1984" stroke-miterlimit="10"/></g><g transform="translate(-278,-30) scale(1,1)"><path fill="#000000" stroke="none" d="M 542.790482243984 1973.837325142376 L 547 1984 L 551.209517756016 1973.837325142376"/></g><g transform="translate(-278,-30) scale(1,1)"><path fill="none" stroke="#000000" d="M 542.790482243984 1973.837325142376 L 547 1984 L 551.209517756016 1973.837325142376 L 542.790482243984 1973.837325142376" stroke-miterlimit="10"/></g><g transform="translate(-278,-30) scale(1,1)"><g><path fill="none" stroke="none"/><text fill="#000000" stroke="none" font-family="Arial" font-size="13px" font-style="normal" font-weight="normal" text-decoration="none" x="553.5" y="1964.5">no</text></g></g><g transform="translate(-278,-30) scale(1,1)"><path fill="#ffffff" stroke="none" d="M 808 536 L 1085 536 L 1095 546 L 1095 591 L 808 591 L 808 536"/></g><g transform="translate(-278,-30) scale(1,1)"><path fill="none" stroke="#545454" d="M 808 536 L 1085 536 L 1095 546 L 1095 591 L 808 591 L 808 536 L 808 536" stroke-miterlimit="10"/></g><g transform="translate(-278,-30) scale(1,1)"><path fill="none" stroke="#545454" d="M 1085 536 L 1085 546 L 1095 546 L 1085 536" stroke-miterlimit="10"/></g><g transform="translate(-278,-30) scale(1,1)"><g><path fill="none" stroke="none"/><text fill="#545454" stroke="none" font-family="Arial" font-size="13px" font-style="normal" font-weight="normal" text-decoration="none" x="813" y="554">If there are no asks and no bids for the current</text><text fill="#545454" stroke="none" font-family="Arial" font-size="13px" font-style="normal" font-weight="normal" text-decoration="none" x="813" y="567">product in the current timeframe, continue to the</text><text fill="#545454" stroke="none" font-family="Arial" font-size="13px" font-style="normal" font-weight="normal" text-decoration="none" x="813" y="580">next product</text></g></g><g transform="translate(-278,-30) scale(1,1)"><path fill="none" stroke="#000000" d="M 807 563 L 655 561" stroke-miterlimit="10" stroke-dasharray="3"/></g><g transform="translate(-278,-30) scale(1,1)"><path fill="#ffffff" stroke="none" d="M 811 816 L 1088 816 L 1098 826 L 1098 935 L 811 935 L 811 816"/></g><g transform="translate(-278,-30) scale(1,1)"><path fill="none" stroke="#707070" d="M 811 816 L 1088 816 L 1098 826 L 1098 935 L 811 935 L 811 816 L 811 816" stroke-miterlimit="10"/></g><g transform="translate(-278,-30) scale(1,1)"><path fill="none" stroke="#707070" d="M 1088 816 L 1088 826 L 1098 826 L 1088 816" stroke-miterlimit="10"/></g><g transform="translate(-278,-30) scale(1,1)"><g><path fill="none" stroke="none"/><text fill="#545454" stroke="none" font-family="Arial" font-size="13px" font-style="normal" font-weight="normal" text-decoration="none" x="816" y="834">sumOfAskPrice, sumOfBidPrice are needed to</text><text fill="#545454" stroke="none" font-family="Arial" font-size="13px" font-style="normal" font-weight="normal" text-decoration="none" x="816" y="847">calculate the new Average price based on bids'</text><text fill="#545454" stroke="none" font-family="Arial" font-size="13px" font-style="normal" font-weight="normal" text-decoration="none" x="816" y="860">and asks' prices in the current timeframe. The</text><text fill="#545454" stroke="none" font-family="Arial" font-size="13px" font-style="normal" font-weight="normal" text-decoration="none" x="816" y="873">new average value is inserted into the</text><text fill="#545454" stroke="none" font-family="Arial" font-size="13px" font-style="normal" font-weight="normal" text-decoration="none" x="816" y="886">RollingAverageManager now, because at the</text><text fill="#545454" stroke="none" font-family="Arial" font-size="13px" font-style="normal" font-weight="normal" text-decoration="none" x="816" y="899">next instruction, if the sma calculated for the</text><text fill="#545454" stroke="none" font-family="Arial" font-size="13px" font-style="normal" font-weight="normal" text-decoration="none" x="816" y="912">current timeframe is 0, the loop will jump to the</text><text fill="#545454" stroke="none" font-family="Arial" font-size="13px" font-style="normal" font-weight="normal" text-decoration="none" x="816" y="925">next product. </text></g></g><g transform="translate(-278,-30) scale(1,1)"><path fill="none" stroke="#000000" d="M 687 878 L 810 877" stroke-miterlimit="10" stroke-dasharray="3"/></g><g transform="translate(-278,-30) scale(1,1)"><path fill="#ffffff" stroke="none" d="M 811 944 L 1088 944 L 1098 954 L 1098 999 L 811 999 L 811 944"/></g><g transform="translate(-278,-30) scale(1,1)"><path fill="none" stroke="#707070" d="M 811 944 L 1088 944 L 1098 954 L 1098 999 L 811 999 L 811 944 L 811 944" stroke-miterlimit="10"/></g><g transform="translate(-278,-30) scale(1,1)"><path fill="none" stroke="#707070" d="M 1088 944 L 1088 954 L 1098 954 L 1088 944" stroke-miterlimit="10"/></g><g transform="translate(-278,-30) scale(1,1)"><g><path fill="none" stroke="none"/><text fill="#545454" stroke="none" font-family="Arial" font-size="13px" font-style="normal" font-weight="normal" text-decoration="none" x="816" y="962">If sma == 0, not enough information to calculate</text><text fill="#545454" stroke="none" font-family="Arial" font-size="13px" font-style="normal" font-weight="normal" text-decoration="none" x="816" y="975">the right price for bids and asks.</text></g></g><g transform="translate(-278,-30) scale(1,1)"><path fill="none" stroke="#000000" d="M 810 970 L 619 968" stroke-miterlimit="10" stroke-dasharray="3"/></g><g transform="translate(-278,-30) scale(1,1)"><path fill="#ffffff" stroke="none" d="M 811 1032 L 1088 1032 L 1098 1042 L 1098 1081 L 811 1081 L 811 1032"/></g><g transform="translate(-278,-30) scale(1,1)"><path fill="none" stroke="#707070" d="M 811 1032 L 1088 1032 L 1098 1042 L 1098 1081 L 811 1081 L 811 1032 L 811 1032" stroke-miterlimit="10"/></g><g transform="translate(-278,-30) scale(1,1)"><path fill="none" stroke="#707070" d="M 1088 1032 L 1088 1042 L 1098 1042 L 1088 1032" stroke-miterlimit="10"/></g><g transform="translate(-278,-30) scale(1,1)"><g><path fill="none" stroke="none"/><text fill="#545454" stroke="none" font-family="Arial" font-size="13px" font-style="normal" font-weight="normal" text-decoration="none" x="816" y="1050">All asks with a price lower than the sma are</text><text fill="#545454" stroke="none" font-family="Arial" font-size="13px" font-style="normal" font-weight="normal" text-decoration="none" x="816" y="1063">worth a bid. Calculate the max amount of asks</text><text fill="#545454" stroke="none" font-family="Arial" font-size="13px" font-style="normal" font-weight="normal" text-decoration="none" x="816" y="1076">to bid for.</text></g></g><g transform="translate(-278,-30) scale(1,1)"><path fill="none" stroke="#000000" d="M 810 1056 L 735 1056" stroke-miterlimit="10" stroke-dasharray="3"/></g><g transform="translate(-278,-30) scale(1,1)"><path fill="#ffffff" stroke="none" d="M 811 1112 L 1088 1112 L 1098 1122 L 1098 1161 L 811 1161 L 811 1112"/></g><g transform="translate(-278,-30) scale(1,1)"><path fill="none" stroke="#707070" d="M 811 1112 L 1088 1112 L 1098 1122 L 1098 1161 L 811 1161 L 811 1112 L 811 1112" stroke-miterlimit="10"/></g><g transform="translate(-278,-30) scale(1,1)"><path fill="none" stroke="#707070" d="M 1088 1112 L 1088 1122 L 1098 1122 L 1088 1112" stroke-miterlimit="10"/></g><g transform="translate(-278,-30) scale(1,1)"><g><path fill="none" stroke="none"/><text fill="#545454" stroke="none" font-family="Arial" font-size="13px" font-style="normal" font-weight="normal" text-decoration="none" x="816" y="1130">See if there is enough money in the wallet to</text><text fill="#545454" stroke="none" font-family="Arial" font-size="13px" font-style="normal" font-weight="normal" text-decoration="none" x="816" y="1143">cover maxBidAmount</text></g></g><g transform="translate(-278,-30) scale(1,1)"><path fill="none" stroke="#000000" d="M 810 1137 L 771 1137" stroke-miterlimit="10" stroke-dasharray="3"/></g><g transform="translate(-278,-30) scale(1,1)"><path fill="#ffffff" stroke="none" d="M 811 1184 L 1088 1184 L 1098 1194 L 1098 1246 L 811 1246 L 811 1184"/></g><g transform="translate(-278,-30) scale(1,1)"><path fill="none" stroke="#707070" d="M 811 1184 L 1088 1184 L 1098 1194 L 1098 1246 L 811 1246 L 811 1184 L 811 1184" stroke-miterlimit="10"/></g><g transform="translate(-278,-30) scale(1,1)"><path fill="none" stroke="#707070" d="M 1088 1184 L 1088 1194 L 1098 1194 L 1088 1184" stroke-miterlimit="10"/></g><g transform="translate(-278,-30) scale(1,1)"><g><path fill="none" stroke="none"/><text fill="#545454" stroke="none" font-family="Arial" font-size="13px" font-style="normal" font-weight="normal" text-decoration="none" x="816" y="1202">The available amount is the minimum between</text><text fill="#545454" stroke="none" font-family="Arial" font-size="13px" font-style="normal" font-weight="normal" text-decoration="none" x="816" y="1215">the maxbidAmount and the availableAmount in</text><text fill="#545454" stroke="none" font-family="Arial" font-size="13px" font-style="normal" font-weight="normal" text-decoration="none" x="816" y="1228">my wallet.</text></g></g><g transform="translate(-278,-30) scale(1,1)"><path fill="none" stroke="#000000" d="M 810 1217 L 731 1218" stroke-miterlimit="10" stroke-dasharray="3"/></g><g transform="translate(-278,-30) scale(1,1)"><path fill="#ffffff" stroke="none" d="M 811 1552 L 1088 1552 L 1098 1562 L 1098 1601 L 811 1601 L 811 1552"/></g><g transform="translate(-278,-30) scale(1,1)"><path fill="none" stroke="#707070" d="M 811 1552 L 1088 1552 L 1098 1562 L 1098 1601 L 811 1601 L 811 1552 L 811 1552" stroke-miterlimit="10"/></g><g transform="translate(-278,-30) scale(1,1)"><path fill="none" stroke="#707070" d="M 1088 1552 L 1088 1562 L 1098 1562 L 1088 1552" stroke-miterlimit="10"/></g><g transform="translate(-278,-30) scale(1,1)"><g><path fill="none" stroke="none"/><text fill="#545454" stroke="none" font-family="Arial" font-size="13px" font-style="normal" font-weight="normal" text-decoration="none" x="816" y="1570">All bids with a price higher than the sma are</text><text fill="#545454" stroke="none" font-family="Arial" font-size="13px" font-style="normal" font-weight="normal" text-decoration="none" x="816" y="1583">worth a ask. Calculate the max amount of bids</text><text fill="#545454" stroke="none" font-family="Arial" font-size="13px" font-style="normal" font-weight="normal" text-decoration="none" x="816" y="1596">to ask for.</text></g></g><g transform="translate(-278,-30) scale(1,1)"><path fill="none" stroke="#000000" d="M 810 1574 L 771 1573" stroke-miterlimit="10" stroke-dasharray="3"/></g><g transform="translate(-278,-30) scale(1,1)"><path fill="#ffffff" stroke="none" d="M 811 1624 L 1088 1624 L 1098 1634 L 1098 1670 L 811 1670 L 811 1624"/></g><g transform="translate(-278,-30) scale(1,1)"><path fill="none" stroke="#707070" d="M 811 1624 L 1088 1624 L 1098 1634 L 1098 1670 L 811 1670 L 811 1624 L 811 1624" stroke-miterlimit="10"/></g><g transform="translate(-278,-30) scale(1,1)"><path fill="none" stroke="#707070" d="M 1088 1624 L 1088 1634 L 1098 1634 L 1088 1624" stroke-miterlimit="10"/></g><g transform="translate(-278,-30) scale(1,1)"><g><path fill="none" stroke="none"/><text fill="#545454" stroke="none" font-family="Arial" font-size="13px" font-style="normal" font-weight="normal" text-decoration="none" x="816" y="1642">See if there is enough money in the wallet to</text><text fill="#545454" stroke="none" font-family="Arial" font-size="13px" font-style="normal" font-weight="normal" text-decoration="none" x="816" y="1655">cover maxAskAmount</text></g></g><g transform="translate(-278,-30) scale(1,1)"><path fill="none" stroke="#000000" d="M 810 1647 L 751 1647" stroke-miterlimit="10" stroke-dasharray="3"/></g></g></svg>